<svg xmlns="http://www.w3.org/2000/svg" xmlns:xlink="http://www.w3.org/1999/xlink" width="48" zoomAndPan="magnify" viewBox="0 0 36 30.750001" height="41" preserveAspectRatio="xMidYMid meet" version="1.0"><defs><clipPath id="5e639bd0eb"><path d="M 0.230469 10 L 11 10 L 11 21 L 0.230469 21 Z M 0.230469 10 " clip-rule="nonzero"/></clipPath><clipPath id="1bb494f9fc"><path d="M 10 0.265625 L 33 0.265625 L 33 20 L 10 20 Z M 10 0.265625 " clip-rule="nonzero"/></clipPath></defs><path fill="#ed3237" d="M 10.550781 15.421875 L 4.496094 21.515625 C 4.496094 21.515625 4.496094 21.519531 4.496094 21.519531 C 4.492188 21.519531 4.492188 21.519531 4.492188 21.523438 L 3.707031 22.3125 L 7.742188 26.34375 L 14.566406 19.46875 Z M 10.550781 15.421875 " fill-opacity="1" fill-rule="nonzero"/><g clip-path="url(#5e639bd0eb)"><path fill="#ed3237" d="M 10.152344 15.023438 L 6.136719 10.976562 L 0.3125 16.84375 L 4.300781 20.917969 Z M 10.152344 15.023438 " fill-opacity="1" fill-rule="nonzero"/></g><path fill="#ed3237" d="M 9.140625 25.730469 L 13.15625 29.777344 L 18.980469 23.910156 L 14.964844 19.867188 Z M 9.140625 25.730469 " fill-opacity="1" fill-rule="nonzero"/><path fill="#ed3237" d="M 24.195312 9.769531 L 20.175781 5.71875 L 14.554688 11.386719 L 18.574219 15.429688 Z M 24.195312 9.769531 " fill-opacity="1" fill-rule="nonzero"/><path fill="#ed3237" d="M 18.375 16.027344 L 9.328125 6.917969 L 6.113281 10.160156 L 6.332031 10.378906 L 10.746094 14.820312 L 10.746094 14.824219 L 10.75 14.824219 L 19.574219 23.710938 L 19.792969 23.933594 L 23.007812 20.691406 L 18.378906 16.03125 Z M 18.375 16.027344 " fill-opacity="1" fill-rule="nonzero"/><g clip-path="url(#1bb494f9fc)"><path fill="#ed3237" d="M 28.738281 2.96875 C 28.902344 3.007812 29.027344 3.074219 29.21875 3.171875 C 29.429688 3.277344 29.6875 3.410156 30.109375 3.566406 C 30.648438 3.761719 31.207031 3.902344 31.773438 3.984375 C 31.925781 4.003906 32.066406 3.898438 32.089844 3.746094 C 32.113281 3.59375 32.003906 3.449219 31.851562 3.429688 C 31.324219 3.351562 30.804688 3.21875 30.304688 3.039062 C 29.914062 2.894531 29.671875 2.769531 29.476562 2.671875 C 29.273438 2.566406 29.101562 2.476562 28.867188 2.421875 C 28.082031 2.230469 27.269531 2.5625 25.894531 3.628906 C 25.445312 3.65625 25.019531 3.609375 24.625 3.488281 C 24.058594 3.3125 23.738281 3.042969 23.398438 2.757812 C 23.113281 2.519531 22.820312 2.273438 22.402344 2.113281 C 21.605469 1.808594 20.617188 1.917969 19.464844 2.4375 L 19.085938 2.601562 L 16.769531 0.265625 L 10.140625 6.941406 L 14.160156 10.988281 L 19.976562 5.125 L 20.785156 4.3125 L 19.511719 3.027344 L 19.691406 2.949219 C 20.707031 2.496094 21.550781 2.390625 22.199219 2.636719 C 22.535156 2.765625 22.765625 2.960938 23.035156 3.1875 C 23.386719 3.480469 23.78125 3.8125 24.457031 4.023438 C 24.703125 4.101562 24.960938 4.152344 25.226562 4.179688 C 24.695312 4.628906 24.183594 5.109375 23.6875 5.621094 L 21.984375 3.902344 L 21.378906 4.507812 L 20.574219 5.320312 L 24.589844 9.367188 L 26 7.949219 L 24.085938 6.019531 C 24.605469 5.480469 25.148438 4.976562 25.707031 4.507812 C 25.726562 4.835938 25.785156 5.152344 25.875 5.453125 C 26.085938 6.132812 26.414062 6.53125 26.707031 6.882812 C 26.933594 7.15625 27.125 7.390625 27.253906 7.726562 C 27.5 8.382812 27.394531 9.234375 26.945312 10.253906 L 26.859375 10.433594 L 25.59375 9.15625 L 24.789062 9.964844 L 18.96875 15.828125 L 22.988281 19.875 L 29.609375 13.203125 L 27.28125 10.855469 L 27.453125 10.488281 C 27.96875 9.324219 28.078125 8.328125 27.777344 7.53125 C 27.617188 7.105469 27.375 6.8125 27.140625 6.527344 C 26.855469 6.183594 26.589844 5.863281 26.414062 5.289062 C 26.296875 4.902344 26.25 4.484375 26.269531 4.050781 C 27.636719 2.992188 28.246094 2.851562 28.738281 2.96875 Z M 28.738281 2.96875 " fill-opacity="1" fill-rule="nonzero"/></g><path fill="#ed3237" d="M 32.183594 3.261719 C 32.238281 3.339844 32.324219 3.378906 32.414062 3.378906 C 32.46875 3.378906 32.527344 3.363281 32.574219 3.328125 C 32.703125 3.238281 32.730469 3.0625 32.640625 2.9375 L 31.640625 1.523438 C 31.550781 1.394531 31.375 1.367188 31.25 1.457031 C 31.121094 1.546875 31.09375 1.722656 31.179688 1.847656 Z M 32.183594 3.261719 " fill-opacity="1" fill-rule="nonzero"/><path fill="#ed3237" d="M 33.617188 3.496094 L 34.734375 2.167969 C 34.835938 2.050781 34.820312 1.875 34.699219 1.773438 C 34.582031 1.671875 34.40625 1.6875 34.304688 1.808594 L 33.1875 3.132812 C 33.089844 3.25 33.105469 3.429688 33.222656 3.527344 C 33.277344 3.574219 33.339844 3.59375 33.402344 3.59375 C 33.484375 3.59375 33.5625 3.5625 33.617188 3.496094 Z M 33.617188 3.496094 " fill-opacity="1" fill-rule="nonzero"/><path fill="#ed3237" d="M 34.933594 5.445312 L 33.820312 4.117188 C 33.71875 4 33.542969 3.984375 33.421875 4.085938 C 33.304688 4.183594 33.289062 4.359375 33.390625 4.480469 L 34.503906 5.804688 C 34.5625 5.871094 34.640625 5.90625 34.722656 5.90625 C 34.785156 5.90625 34.847656 5.882812 34.902344 5.839844 C 35.019531 5.738281 35.035156 5.5625 34.933594 5.445312 Z M 34.933594 5.445312 " fill-opacity="1" fill-rule="nonzero"/><path fill="#ed3237" d="M 32.398438 4.332031 L 31.28125 5.660156 C 31.183594 5.777344 31.199219 5.953125 31.316406 6.054688 C 31.371094 6.097656 31.433594 6.121094 31.496094 6.121094 C 31.578125 6.121094 31.65625 6.085938 31.710938 6.019531 L 32.828125 4.695312 C 32.929688 4.578125 32.914062 4.398438 32.796875 4.300781 C 32.675781 4.199219 32.5 4.214844 32.398438 4.332031 Z M 32.398438 4.332031 " fill-opacity="1" fill-rule="nonzero"/></svg>