<svg xmlns="http://www.w3.org/2000/svg" xmlns:xlink="http://www.w3.org/1999/xlink" width="48" zoomAndPan="magnify" viewBox="0 0 36 30.750001" height="41" preserveAspectRatio="xMidYMid meet" version="1.0"><defs><clipPath id="9c3551cd29"><path d="M 0.300781 10 L 11 10 L 11 21 L 0.300781 21 Z M 0.300781 10 " clip-rule="nonzero"/></clipPath><clipPath id="8e5a603062"><path d="M 10 0.265625 L 33 0.265625 L 33 20 L 10 20 Z M 10 0.265625 " clip-rule="nonzero"/></clipPath><clipPath id="32e4496d2c"><path d="M 33 4 L 35.269531 4 L 35.269531 6 L 33 6 Z M 33 4 " clip-rule="nonzero"/></clipPath></defs><path fill="#ffffff" d="M 10.621094 15.421875 L 4.570312 21.515625 C 4.570312 21.515625 4.570312 21.519531 4.570312 21.519531 C 4.566406 21.519531 4.566406 21.519531 4.566406 21.523438 L 3.78125 22.3125 L 7.8125 26.34375 L 14.640625 19.46875 Z M 10.621094 15.421875 " fill-opacity="1" fill-rule="nonzero"/><g clip-path="url(#9c3551cd29)"><path fill="#ffffff" d="M 10.226562 15.023438 L 6.207031 10.976562 L 0.386719 16.84375 L 4.375 20.917969 Z M 10.226562 15.023438 " fill-opacity="1" fill-rule="nonzero"/></g><path fill="#ffffff" d="M 9.214844 25.730469 L 13.230469 29.777344 L 19.054688 23.910156 L 15.035156 19.867188 Z M 9.214844 25.730469 " fill-opacity="1" fill-rule="nonzero"/><path fill="#ffffff" d="M 24.269531 9.769531 L 20.25 5.71875 L 14.628906 11.386719 L 18.648438 15.429688 Z M 24.269531 9.769531 " fill-opacity="1" fill-rule="nonzero"/><path fill="#ffffff" d="M 18.449219 16.027344 L 18.445312 16.027344 L 9.402344 6.917969 L 6.1875 10.160156 L 6.40625 10.378906 L 10.816406 14.820312 L 10.820312 14.824219 L 10.824219 14.824219 L 19.648438 23.710938 L 19.867188 23.933594 L 23.082031 20.691406 L 18.453125 16.03125 Z M 18.449219 16.027344 " fill-opacity="1" fill-rule="nonzero"/><g clip-path="url(#8e5a603062)"><path fill="#ffffff" d="M 28.8125 2.96875 C 28.976562 3.007812 29.101562 3.074219 29.292969 3.171875 C 29.5 3.277344 29.761719 3.410156 30.183594 3.566406 C 30.71875 3.761719 31.277344 3.902344 31.84375 3.984375 C 32 4.003906 32.140625 3.898438 32.164062 3.746094 C 32.183594 3.59375 32.078125 3.449219 31.925781 3.429688 C 31.398438 3.351562 30.875 3.21875 30.375 3.039062 C 29.988281 2.894531 29.746094 2.769531 29.546875 2.671875 C 29.347656 2.566406 29.171875 2.476562 28.941406 2.421875 C 28.152344 2.230469 27.34375 2.5625 25.96875 3.628906 C 25.519531 3.65625 25.09375 3.609375 24.695312 3.488281 C 24.128906 3.3125 23.808594 3.042969 23.472656 2.757812 C 23.1875 2.519531 22.894531 2.273438 22.472656 2.113281 C 21.679688 1.808594 20.691406 1.917969 19.539062 2.4375 L 19.160156 2.601562 L 16.839844 0.265625 L 10.214844 6.941406 L 14.234375 10.988281 L 20.050781 5.125 L 20.859375 4.3125 L 19.585938 3.027344 L 19.765625 2.949219 C 20.78125 2.496094 21.625 2.390625 22.273438 2.636719 C 22.605469 2.765625 22.839844 2.960938 23.109375 3.1875 C 23.460938 3.480469 23.855469 3.8125 24.53125 4.023438 C 24.777344 4.101562 25.035156 4.152344 25.296875 4.179688 C 24.769531 4.628906 24.253906 5.109375 23.761719 5.621094 L 22.054688 3.902344 L 21.453125 4.507812 L 20.648438 5.320312 L 24.664062 9.367188 L 26.074219 7.949219 L 24.15625 6.019531 C 24.679688 5.480469 25.222656 4.976562 25.78125 4.507812 C 25.800781 4.835938 25.855469 5.152344 25.949219 5.453125 C 26.160156 6.132812 26.488281 6.53125 26.78125 6.882812 C 27.003906 7.15625 27.199219 7.390625 27.328125 7.726562 C 27.574219 8.382812 27.46875 9.234375 27.015625 10.253906 L 26.933594 10.433594 L 25.667969 9.15625 L 24.863281 9.964844 L 19.042969 15.828125 L 23.0625 19.875 L 29.683594 13.203125 L 27.355469 10.855469 L 27.527344 10.488281 C 28.042969 9.324219 28.152344 8.328125 27.851562 7.53125 C 27.691406 7.105469 27.449219 6.8125 27.210938 6.527344 C 26.929688 6.183594 26.664062 5.863281 26.488281 5.289062 C 26.367188 4.902344 26.324219 4.484375 26.34375 4.050781 C 27.707031 2.992188 28.320312 2.851562 28.8125 2.96875 Z M 28.8125 2.96875 " fill-opacity="1" fill-rule="nonzero"/></g><path fill="#ffffff" d="M 32.257812 3.261719 C 32.3125 3.339844 32.398438 3.378906 32.488281 3.378906 C 32.542969 3.378906 32.601562 3.363281 32.648438 3.328125 C 32.777344 3.238281 32.804688 3.0625 32.714844 2.9375 L 31.714844 1.523438 C 31.625 1.394531 31.449219 1.367188 31.320312 1.457031 C 31.195312 1.546875 31.164062 1.722656 31.253906 1.847656 Z M 32.257812 3.261719 " fill-opacity="1" fill-rule="nonzero"/><path fill="#ffffff" d="M 33.691406 3.496094 L 34.808594 2.167969 C 34.90625 2.050781 34.894531 1.875 34.773438 1.773438 C 34.65625 1.671875 34.480469 1.6875 34.378906 1.808594 L 33.261719 3.132812 C 33.164062 3.25 33.179688 3.429688 33.296875 3.527344 C 33.347656 3.574219 33.414062 3.59375 33.476562 3.59375 C 33.558594 3.59375 33.636719 3.5625 33.691406 3.496094 Z M 33.691406 3.496094 " fill-opacity="1" fill-rule="nonzero"/><g clip-path="url(#32e4496d2c)"><path fill="#ffffff" d="M 35.007812 5.445312 L 33.890625 4.117188 C 33.792969 4 33.617188 3.984375 33.496094 4.085938 C 33.378906 4.183594 33.363281 4.359375 33.464844 4.480469 L 34.578125 5.804688 C 34.636719 5.871094 34.714844 5.90625 34.792969 5.90625 C 34.859375 5.90625 34.921875 5.882812 34.976562 5.839844 C 35.09375 5.738281 35.109375 5.5625 35.007812 5.445312 Z M 35.007812 5.445312 " fill-opacity="1" fill-rule="nonzero"/></g><path fill="#ffffff" d="M 32.472656 4.332031 L 31.355469 5.660156 C 31.257812 5.777344 31.273438 5.953125 31.390625 6.054688 C 31.445312 6.097656 31.507812 6.121094 31.570312 6.121094 C 31.652344 6.121094 31.730469 6.085938 31.785156 6.019531 L 32.902344 4.695312 C 33.003906 4.578125 32.988281 4.398438 32.867188 4.300781 C 32.75 4.199219 32.574219 4.214844 32.472656 4.332031 Z M 32.472656 4.332031 " fill-opacity="1" fill-rule="nonzero"/></svg>