<svg xmlns="http://www.w3.org/2000/svg" xmlns:xlink="http://www.w3.org/1999/xlink" width="15" zoomAndPan="magnify" viewBox="0 0 11.25 9.75" height="13" preserveAspectRatio="xMidYMid meet" version="1.0"><defs><clipPath id="d52121d2f9"><path d="M 0.191406 3 L 3 3 L 3 7 L 0.191406 7 Z M 0.191406 3 " clip-rule="nonzero"/></clipPath><clipPath id="1e00ae9687"><path d="M 2 6 L 6 6 L 6 9.238281 L 2 9.238281 Z M 2 6 " clip-rule="nonzero"/></clipPath><clipPath id="c29896ec45"><path d="M 2 0.800781 L 10 0.800781 L 10 7 L 2 7 Z M 2 0.800781 " clip-rule="nonzero"/></clipPath></defs><path fill="#a6a6a6" d="M 3.097656 5.074219 L 1.394531 6.792969 C 1.390625 6.792969 1.390625 6.792969 1.390625 6.792969 L 1.167969 7.015625 L 2.308594 8.15625 L 4.234375 6.214844 Z M 3.097656 5.074219 " fill-opacity="1" fill-rule="nonzero"/><g clip-path="url(#d52121d2f9)"><path fill="#a6a6a6" d="M 2.988281 4.960938 L 1.855469 3.820312 L 0.210938 5.476562 L 1.335938 6.625 Z M 2.988281 4.960938 " fill-opacity="1" fill-rule="nonzero"/></g><g clip-path="url(#1e00ae9687)"><path fill="#a6a6a6" d="M 2.703125 7.980469 L 3.835938 9.125 L 5.476562 7.46875 L 4.34375 6.328125 Z M 2.703125 7.980469 " fill-opacity="1" fill-rule="nonzero"/></g><path fill="#a6a6a6" d="M 6.949219 3.480469 L 5.816406 2.339844 L 4.230469 3.9375 L 5.363281 5.078125 Z M 6.949219 3.480469 " fill-opacity="1" fill-rule="nonzero"/><path fill="#a6a6a6" d="M 5.308594 5.246094 L 5.304688 5.246094 L 2.753906 2.675781 L 1.847656 3.589844 L 1.910156 3.652344 L 3.15625 4.90625 L 5.644531 7.414062 L 5.707031 7.476562 L 6.613281 6.5625 Z M 5.308594 5.246094 " fill-opacity="1" fill-rule="nonzero"/><g clip-path="url(#c29896ec45)"><path fill="#a6a6a6" d="M 8.230469 1.5625 C 8.277344 1.574219 8.3125 1.589844 8.367188 1.617188 C 8.425781 1.648438 8.496094 1.6875 8.617188 1.730469 C 8.769531 1.785156 8.925781 1.824219 9.085938 1.847656 C 9.128906 1.855469 9.167969 1.824219 9.175781 1.78125 C 9.179688 1.738281 9.152344 1.699219 9.109375 1.691406 C 8.957031 1.667969 8.8125 1.632812 8.671875 1.582031 C 8.5625 1.542969 8.492188 1.507812 8.4375 1.476562 C 8.378906 1.449219 8.332031 1.421875 8.265625 1.40625 C 8.042969 1.355469 7.816406 1.445312 7.425781 1.75 C 7.300781 1.757812 7.179688 1.742188 7.070312 1.707031 C 6.910156 1.660156 6.820312 1.582031 6.722656 1.503906 C 6.644531 1.433594 6.5625 1.367188 6.441406 1.320312 C 6.21875 1.234375 5.9375 1.265625 5.613281 1.410156 L 5.507812 1.457031 L 4.851562 0.800781 L 2.984375 2.683594 L 4.117188 3.824219 L 5.757812 2.167969 L 5.988281 1.941406 L 5.628906 1.578125 L 5.679688 1.558594 C 5.964844 1.429688 6.203125 1.398438 6.386719 1.46875 C 6.480469 1.503906 6.546875 1.558594 6.621094 1.625 C 6.71875 1.707031 6.832031 1.800781 7.023438 1.859375 C 7.089844 1.882812 7.164062 1.894531 7.238281 1.902344 C 7.089844 2.03125 6.945312 2.164062 6.804688 2.308594 L 6.324219 1.824219 L 6.152344 1.996094 L 5.925781 2.226562 L 7.058594 3.367188 L 7.457031 2.964844 L 6.917969 2.421875 C 7.0625 2.269531 7.21875 2.128906 7.375 1.996094 C 7.378906 2.089844 7.394531 2.175781 7.421875 2.261719 C 7.480469 2.453125 7.574219 2.566406 7.65625 2.667969 C 7.71875 2.742188 7.773438 2.808594 7.8125 2.902344 C 7.878906 3.089844 7.851562 3.328125 7.722656 3.617188 L 7.699219 3.667969 L 7.34375 3.304688 L 7.117188 3.535156 L 5.472656 5.1875 L 6.609375 6.332031 L 8.476562 4.449219 L 7.820312 3.785156 L 7.867188 3.683594 C 8.011719 3.355469 8.042969 3.074219 7.957031 2.847656 C 7.914062 2.730469 7.84375 2.644531 7.777344 2.566406 C 7.699219 2.46875 7.625 2.378906 7.574219 2.214844 C 7.539062 2.109375 7.527344 1.988281 7.535156 1.867188 C 7.917969 1.570312 8.089844 1.527344 8.230469 1.5625 Z M 8.230469 1.5625 " fill-opacity="1" fill-rule="nonzero"/></g><path fill="#a6a6a6" d="M 9.203125 1.644531 C 9.21875 1.667969 9.242188 1.679688 9.265625 1.679688 C 9.28125 1.679688 9.296875 1.671875 9.3125 1.664062 C 9.347656 1.636719 9.355469 1.589844 9.332031 1.554688 L 9.046875 1.152344 C 9.023438 1.117188 8.972656 1.109375 8.9375 1.136719 C 8.902344 1.160156 8.894531 1.210938 8.917969 1.246094 Z M 9.203125 1.644531 " fill-opacity="1" fill-rule="nonzero"/><path fill="#a6a6a6" d="M 9.605469 1.710938 L 9.921875 1.335938 C 9.949219 1.304688 9.945312 1.253906 9.910156 1.226562 C 9.878906 1.195312 9.828125 1.199219 9.800781 1.234375 L 9.484375 1.609375 C 9.457031 1.640625 9.460938 1.691406 9.496094 1.71875 C 9.507812 1.730469 9.527344 1.738281 9.546875 1.738281 C 9.566406 1.738281 9.589844 1.730469 9.605469 1.710938 Z M 9.605469 1.710938 " fill-opacity="1" fill-rule="nonzero"/><path fill="#a6a6a6" d="M 9.976562 2.261719 L 9.664062 1.886719 C 9.632812 1.851562 9.585938 1.847656 9.550781 1.875 C 9.519531 1.90625 9.511719 1.953125 9.542969 1.988281 L 9.855469 2.363281 C 9.871094 2.378906 9.894531 2.390625 9.917969 2.390625 C 9.933594 2.390625 9.953125 2.382812 9.96875 2.371094 C 10 2.34375 10.003906 2.292969 9.976562 2.261719 Z M 9.976562 2.261719 " fill-opacity="1" fill-rule="nonzero"/><path fill="#a6a6a6" d="M 9.261719 1.945312 L 8.949219 2.320312 C 8.917969 2.355469 8.921875 2.402344 8.957031 2.433594 C 8.972656 2.445312 8.988281 2.449219 9.007812 2.449219 C 9.03125 2.449219 9.054688 2.441406 9.070312 2.421875 L 9.382812 2.046875 C 9.410156 2.015625 9.40625 1.964844 9.375 1.9375 C 9.339844 1.910156 9.289062 1.914062 9.261719 1.945312 Z M 9.261719 1.945312 " fill-opacity="1" fill-rule="nonzero"/></svg>