<svg xmlns="http://www.w3.org/2000/svg" xmlns:xlink="http://www.w3.org/1999/xlink" width="129" zoomAndPan="magnify" viewBox="0 0 96.75 94.499997" height="126" preserveAspectRatio="xMidYMid meet" version="1.0"><defs><clipPath id="7a294874e4"><path d="M 0.175781 0.542969 L 91 0.542969 L 91 56 L 0.175781 56 Z M 0.175781 0.542969 " clip-rule="nonzero"/></clipPath><clipPath id="48af198c0c"><path d="M 2 40 L 96.371094 40 L 96.371094 93.800781 L 2 93.800781 Z M 2 40 " clip-rule="nonzero"/></clipPath></defs><path fill="#16973c" d="M 47.972656 46.953125 C 49.464844 46.359375 50.121094 45.269531 49.636719 44.089844 C 49.15625 42.910156 48.078125 42.550781 46.722656 43.050781 C 46.332031 43.175781 45.960938 43.339844 45.601562 43.535156 L 46.960938 47.214844 C 47.3125 47.179688 47.648438 47.09375 47.972656 46.953125 Z M 47.972656 46.953125 " fill-opacity="1" fill-rule="nonzero"/><path fill="#16973c" d="M 52.105469 34.910156 L 52.105469 34.832031 L 52.164062 34.890625 L 62.511719 31.125 C 62.285156 30.640625 62.027344 30.15625 61.796875 29.632812 L 59.683594 30.398438 L 59.582031 30.65625 C 59.300781 30.746094 59.011719 30.78125 58.714844 30.753906 L 58.285156 30.910156 C 57.671875 31.640625 57.234375 31.84375 56.640625 31.503906 L 53.808594 32.539062 C 53.996094 32.875 54.136719 33.230469 54.226562 33.609375 C 54.226562 33.734375 53.632812 33.894531 53.308594 34.039062 C 53.222656 33.753906 53.171875 33.460938 53.148438 33.164062 C 53.148438 33.027344 53.167969 32.890625 53.207031 32.757812 L 44.570312 35.894531 C 44.449219 36.46875 44.234375 37.003906 43.921875 37.5 C 43.652344 37.910156 42.949219 37.929688 42.683594 37.214844 C 42.617188 37.03125 42.558594 36.839844 42.503906 36.648438 L 38.859375 37.972656 C 39.191406 38.429688 39.398438 38.941406 39.476562 39.5 Z M 52.105469 34.910156 " fill-opacity="1" fill-rule="nonzero"/><path fill="#16973c" d="M 50.769531 13.261719 C 50.679688 12.769531 50.59375 12.285156 50.507812 11.804688 C 50.132812 11.78125 49.761719 11.773438 49.390625 11.757812 C 49.332031 12.019531 49.273438 12.28125 49.214844 12.554688 L 47.046875 11.960938 C 47.046875 11.886719 47.078125 11.820312 47.085938 11.742188 C 45.949219 11.78125 44.808594 11.867188 43.683594 12.015625 C 43.664062 12.550781 43.511719 13.050781 43.226562 13.507812 C 45.734375 13.144531 48.246094 13.0625 50.769531 13.261719 Z M 50.769531 13.261719 " fill-opacity="1" fill-rule="nonzero"/><path fill="#16973c" d="M 62.347656 79.460938 C 62.347656 79.316406 62.347656 79.191406 62.347656 79.125 C 62.792969 77.722656 63.46875 77.464844 64.234375 78.316406 C 64.285156 78.375 64.328125 78.445312 64.378906 78.503906 C 64.703125 78.335938 65.027344 78.175781 65.351562 78.015625 C 65.351562 77.460938 65.394531 76.90625 65.417969 76.347656 C 63.382812 77.535156 61.246094 78.5 59.011719 79.246094 C 56.773438 79.992188 54.484375 80.496094 52.144531 80.765625 C 49.800781 81.035156 47.457031 81.058594 45.109375 80.839844 C 42.765625 80.621094 40.464844 80.164062 38.210938 79.46875 C 38.21875 79.683594 38.1875 79.890625 38.109375 80.089844 L 37.625 79.285156 L 37.300781 79.175781 C 37.332031 79.625 37.367188 80.070312 37.390625 80.515625 C 37.390625 80.582031 37.390625 80.640625 37.390625 80.695312 C 37.730469 80.808594 38.070312 80.90625 38.410156 81.003906 C 38.449219 80.855469 38.519531 80.726562 38.621094 80.613281 C 38.882812 80.3125 39.457031 80.363281 39.890625 80.253906 L 40.050781 80.640625 L 39.851562 80.847656 C 39.898438 81.042969 39.949219 81.230469 39.996094 81.414062 C 44.359375 82.453125 48.765625 82.65625 53.207031 82.027344 C 53.332031 81.535156 53.632812 81.195312 54.105469 81.007812 L 54.152344 81.882812 C 56.984375 81.40625 59.714844 80.597656 62.347656 79.460938 Z M 62.347656 79.460938 " fill-opacity="1" fill-rule="nonzero"/><g clip-path="url(#7a294874e4)"><path fill="#16973c" d="M 87.550781 22.566406 L 87.460938 22.082031 C 87.203125 22.335938 86.90625 22.523438 86.5625 22.640625 C 86.785156 21.894531 86.359375 21.03125 87.050781 20.457031 C 86.738281 19.503906 86.277344 18.628906 85.664062 17.835938 C 84.519531 16.453125 83.105469 15.445312 81.425781 14.8125 C 81.128906 14.988281 80.816406 15.125 80.484375 15.222656 C 80.175781 15.285156 79.617188 15.296875 79.554688 15.152344 C 79.382812 14.789062 79.265625 14.414062 79.199219 14.019531 C 78.714844 13.863281 78.230469 13.71875 77.703125 13.574219 C 77.703125 13.867188 77.738281 14.199219 77.757812 14.578125 C 77.757812 14.84375 77.539062 15.09375 77.421875 15.347656 L 77.15625 15.195312 C 77.070312 14.578125 76.996094 13.960938 76.910156 13.34375 C 75.066406 12.808594 73.335938 12.277344 72.050781 11.402344 C 70.59375 10.394531 69.351562 8.753906 68.039062 7.035156 C 67.746094 6.640625 67.449219 6.253906 67.148438 5.863281 C 66.777344 6.410156 66.492188 7 66.304688 7.628906 C 66.335938 6.738281 66.375 5.839844 66.414062 4.941406 C 64.957031 3.1875 63.34375 1.644531 61.210938 0.996094 C 60.945312 0.914062 60.679688 0.851562 60.40625 0.800781 C 60.414062 0.964844 60.394531 1.128906 60.347656 1.285156 L 60.375 1.285156 L 60.375 1.316406 C 60.808594 1.480469 61.234375 1.671875 61.652344 1.882812 C 61.871094 2.050781 62.0625 2.246094 62.230469 2.464844 L 60.921875 2.398438 C 60.683594 2.066406 60.5 1.703125 60.375 1.316406 L 60.324219 1.316406 C 59.90625 1.179688 59.542969 0.957031 59.238281 0.640625 C 56.835938 0.523438 54.40625 1.359375 52.03125 2.183594 C 51.597656 2.335938 51.175781 2.480469 50.757812 2.617188 C 50.488281 2.851562 50.179688 2.984375 49.824219 3.007812 L 49.851562 2.90625 C 48.730469 3.289062 47.574219 3.507812 46.390625 3.566406 C 44.691406 3.566406 42.777344 2.996094 40.75 2.367188 C 39.589844 2.007812 38.40625 1.640625 37.226562 1.398438 C 37.109375 1.402344 36.992188 1.394531 36.875 1.375 C 36.875 1.375 36.832031 1.34375 36.8125 1.316406 C 35.015625 0.882812 33.234375 0.945312 31.46875 1.496094 C 29.265625 2.265625 27.675781 4 26.261719 5.929688 C 27.128906 6.847656 27.234375 8.078125 27.171875 9.363281 C 27.171875 9.441406 27.171875 9.515625 27.171875 9.585938 C 27.210938 9.535156 27.253906 9.476562 27.289062 9.421875 C 28.171875 8.007812 29.191406 6.699219 30.34375 5.496094 C 30.335938 5.480469 30.328125 5.464844 30.320312 5.445312 C 30.066406 4.792969 29.945312 4.121094 29.949219 3.421875 C 29.949219 2.277344 30.644531 2.042969 31.894531 2.824219 C 31.980469 2.980469 32.382812 3.375 32.308594 3.628906 C 32.234375 3.886719 32.21875 4.046875 32.167969 4.257812 L 32.40625 4.160156 C 34.507812 3.417969 37.074219 4.199219 39.792969 5.039062 L 39.117188 4.003906 L 39.800781 4.25 C 39.800781 3.898438 39.761719 3.578125 39.734375 3.054688 C 40.398438 3.667969 40.742188 4.429688 40.757812 5.335938 L 41.054688 5.425781 L 40.773438 5.480469 C 40.808594 6.019531 40.925781 6.539062 41.128906 7.039062 C 40.8125 6.554688 40.5 6.066406 40.1875 5.582031 C 35.667969 6.445312 31.40625 8.011719 27.40625 10.28125 C 27.589844 10.796875 27.574219 11.308594 27.367188 11.816406 C 27.253906 11.964844 26.953125 11.925781 26.773438 11.96875 C 26.773438 11.484375 26.773438 11.074219 26.773438 10.644531 C 26.589844 10.757812 26.402344 10.855469 26.222656 10.964844 L 26.550781 10.441406 C 26.339844 10.550781 26.113281 10.621094 25.878906 10.644531 L 26.320312 9.1875 L 25.03125 9.675781 L 24.824219 9.289062 C 25.125 9.121094 25.417969 8.804688 25.726562 8.804688 C 26.578125 8.835938 26.839844 8.515625 26.460938 7.597656 C 26.296875 7.195312 26.113281 6.800781 25.921875 6.40625 C 25.582031 6.894531 25.246094 7.378906 24.917969 7.863281 C 23.746094 9.578125 22.535156 11.355469 21.109375 12.464844 C 19.6875 13.578125 17.675781 14.316406 15.726562 15.035156 L 15.195312 15.226562 C 15.367188 15.59375 15.375 15.960938 15.222656 16.335938 C 15.011719 15.964844 14.851562 15.695312 14.691406 15.417969 L 14.4375 15.515625 C 14.46875 15.933594 14.496094 16.34375 14.519531 16.761719 C 14.550781 17.34375 14.519531 17.757812 13.785156 17.523438 C 13.335938 17.480469 12.894531 17.515625 12.457031 17.632812 C 12.257812 17.144531 13.425781 16.621094 13 16.113281 C 11.007812 16.976562 9.183594 18.054688 8.019531 19.835938 C 7.300781 20.972656 6.855469 22.207031 6.6875 23.539062 L 7.59375 23.941406 C 7.503906 24.292969 7.394531 24.675781 7.207031 25.351562 L 6.558594 24.425781 C 6.476562 25.957031 6.5 27.488281 6.625 29.015625 C 6.746094 31.132812 6.855469 33.128906 6.417969 34.777344 C 5.980469 36.429688 4.871094 38.121094 3.707031 39.910156 C 2.574219 41.503906 1.636719 43.203125 0.890625 45.011719 C 1.066406 44.988281 1.242188 44.988281 1.417969 45.011719 C 1.691406 45.101562 1.957031 45.214844 2.207031 45.359375 C 2 45.660156 1.71875 46.253906 1.609375 46.207031 C 1.277344 46.039062 0.972656 45.832031 0.699219 45.578125 C 0.597656 45.914062 0.515625 46.25 0.453125 46.59375 C 0.621094 46.738281 0.796875 46.890625 0.980469 47.035156 L 0.304688 48.007812 C 0.304688 48.175781 0.304688 48.351562 0.304688 48.519531 C 0.402344 50.40625 1.210938 52.089844 2.285156 53.671875 C 2.160156 54.160156 2.113281 54.65625 2.136719 55.160156 L 3.597656 53.867188 C 3.566406 54.039062 3.527344 54.269531 3.46875 54.605469 L 3.824219 54.550781 C 3.882812 53.949219 4.085938 53.402344 4.433594 52.90625 C 4.777344 52.410156 5.222656 52.03125 5.769531 51.769531 C 5.730469 51.625 5.714844 51.476562 5.71875 51.328125 C 5.71875 51.238281 5.921875 51.160156 6.207031 51.054688 C 6.078125 50.855469 5.917969 50.570312 5.789062 50.359375 C 6.039062 50.230469 6.300781 50.132812 6.574219 50.066406 C 6.859375 50.050781 7.140625 50.066406 7.421875 50.113281 L 7.609375 50.417969 C 7.371094 50.59375 7.125 50.796875 6.890625 50.96875 C 6.890625 51.097656 6.925781 51.214844 6.941406 51.328125 L 10.226562 50.15625 C 10.257812 49.710938 10.289062 49.316406 10.316406 48.929688 L 10.554688 48.875 C 10.699219 49.1875 10.847656 49.507812 11.011719 49.847656 L 11.640625 49.621094 C 11.621094 49.527344 11.609375 49.433594 11.609375 49.335938 C 11.636719 49.042969 11.695312 48.753906 11.785156 48.472656 L 12.097656 48.347656 C 12.238281 48.660156 12.40625 48.976562 12.539062 49.316406 L 18.125 47.242188 L 18.199219 46.808594 L 19.054688 46.902344 L 21.160156 46.140625 C 21.230469 45.457031 20.980469 44.722656 21.605469 44.199219 L 14.273438 46.910156 C 14.285156 44.21875 14.609375 41.570312 15.246094 38.957031 C 15.164062 38.988281 15.078125 39.011719 14.992188 39.035156 C 14.691406 39.097656 14.128906 39.109375 14.0625 38.960938 C 14 38.816406 13.941406 38.671875 13.890625 38.519531 C 13.363281 40.660156 13.039062 42.828125 12.917969 45.027344 C 13.003906 45.269531 13.117188 45.558594 13.261719 45.949219 L 12.878906 45.820312 C 12.878906 46.355469 12.847656 46.890625 12.855469 47.421875 L 8.816406 48.878906 C 8.839844 48.992188 8.863281 49.097656 8.894531 49.207031 C 8.5 49.304688 8.101562 49.335938 7.699219 49.300781 C 7.5625 49.273438 7.484375 48.679688 7.273438 48.011719 C 7.910156 48.058594 8.367188 47.960938 8.535156 48.140625 C 8.679688 48.332031 8.765625 48.546875 8.796875 48.78125 C 8.773438 48.296875 8.765625 47.8125 8.761719 47.328125 C 8.582031 47.339844 8.417969 47.292969 8.269531 47.1875 C 8.125 47.082031 8.027344 46.941406 7.980469 46.769531 C 7.726562 46.121094 7.59375 45.445312 7.589844 44.75 C 7.621094 43.828125 8.078125 43.507812 8.894531 43.820312 C 8.945312 43.210938 9.003906 42.601562 9.082031 41.996094 L 8.796875 41.835938 C 8.839844 41.695312 8.886719 41.558594 8.933594 41.417969 L 9.152344 41.527344 C 9.765625 37.234375 11.046875 33.152344 13 29.28125 C 13 28.839844 13.078125 28.414062 13.242188 28 C 13.292969 28.183594 13.335938 28.363281 13.378906 28.542969 C 15.410156 24.722656 18.003906 21.332031 21.152344 18.367188 C 24.304688 15.398438 27.851562 13.015625 31.789062 11.21875 C 30.953125 10.042969 31.011719 9.820312 31.253906 8.902344 L 32.523438 10.882812 C 35.640625 9.535156 38.882812 8.609375 42.242188 8.105469 C 42.359375 7.714844 42.5 7.328125 42.660156 6.949219 C 43.144531 7.398438 43.578125 7.617188 43.632812 7.859375 C 43.632812 7.882812 43.632812 7.90625 43.632812 7.925781 C 44.988281 7.773438 46.347656 7.6875 47.714844 7.675781 C 47.613281 7.527344 47.515625 7.382812 47.414062 7.242188 L 47.542969 7.054688 C 47.359375 7.242188 47.15625 7.4375 46.929688 7.675781 C 46.882812 7.171875 46.894531 6.667969 46.960938 6.164062 C 47.082031 5.824219 47.292969 5.550781 47.585938 5.34375 C 47.660156 5.28125 48.101562 5.535156 48.109375 5.617188 C 48.132812 5.945312 48.074219 6.257812 47.933594 6.554688 C 47.820312 6.726562 47.691406 6.886719 47.546875 7.039062 L 48.90625 7.664062 C 53.949219 7.753906 58.796875 8.765625 63.453125 10.699219 C 63.457031 10.683594 63.457031 10.667969 63.453125 10.65625 L 63.777344 10.546875 C 64.019531 10.710938 64.246094 10.894531 64.457031 11.101562 L 64.484375 11.144531 C 65.097656 11.417969 65.699219 11.707031 66.292969 12.015625 C 66.296875 11.910156 66.308594 11.804688 66.328125 11.703125 L 66.730469 12.242188 L 67.15625 12.464844 L 67.410156 12.035156 L 67.484375 12.640625 C 69.164062 13.574219 70.769531 14.628906 72.296875 15.796875 C 72.148438 15.582031 71.984375 15.375 71.808594 15.183594 C 72.847656 14.3125 72.945312 16.15625 73.699219 16.15625 C 73.515625 16.324219 73.300781 16.398438 73.054688 16.382812 C 73.574219 16.800781 74.078125 17.234375 74.578125 17.683594 L 76.003906 18.378906 L 75.84375 18.863281 C 76.492188 19.511719 77.121094 20.171875 77.738281 20.851562 L 78.222656 20.726562 C 78.339844 21.046875 78.476562 21.402344 78.710938 21.984375 C 78.921875 22.242188 79.140625 22.5 79.351562 22.765625 C 79.449219 22.886719 79.542969 23.011719 79.632812 23.136719 L 75.582031 24.59375 C 75.246094 24.183594 74.898438 23.785156 74.546875 23.394531 C 74.449219 23.460938 74.339844 23.503906 74.222656 23.519531 C 74.105469 23.535156 73.992188 23.519531 73.882812 23.476562 C 73.769531 23.433594 73.675781 23.371094 73.601562 23.28125 C 73.523438 23.191406 73.472656 23.085938 73.445312 22.972656 C 73.328125 22.652344 73.234375 22.332031 73.160156 22 C 71.476562 20.324219 69.640625 18.832031 67.652344 17.527344 C 67.566406 17.839844 67.460938 18.144531 67.339844 18.441406 C 67.015625 18.253906 66.597656 18.140625 66.414062 17.855469 C 66.304688 17.675781 66.414062 17.324219 66.515625 16.816406 C 63.890625 15.238281 61.109375 14.023438 58.167969 13.164062 C 58.082031 13.226562 57.988281 13.273438 57.886719 13.304688 L 57.042969 12.847656 C 55.390625 12.429688 53.710938 12.132812 52.015625 11.953125 C 51.992188 12.070312 51.964844 12.1875 51.925781 12.300781 C 51.8125 12.636719 51.675781 12.964844 51.523438 13.320312 C 52.832031 13.449219 54.128906 13.65625 55.410156 13.933594 C 55.433594 13.859375 55.457031 13.785156 55.484375 13.714844 C 55.484375 13.796875 55.527344 13.878906 55.546875 13.960938 C 60.828125 15.117188 65.5625 17.40625 69.742188 20.832031 L 69.792969 20.832031 C 69.753906 20.492188 69.722656 20.257812 69.699219 20.082031 L 71.460938 22.023438 C 71.667969 21.921875 71.972656 21.792969 72.300781 21.617188 C 72.398438 22.277344 72.597656 22.734375 72.464844 22.933594 C 72.410156 23.011719 72.34375 23.074219 72.265625 23.125 C 72.628906 23.492188 72.988281 23.863281 73.339844 24.253906 C 73.664062 24.253906 73.902344 24.253906 74.015625 24.363281 C 74.25 24.613281 74.261719 25.0625 74.375 25.425781 C 73.980469 25.53125 73.582031 25.5625 73.179688 25.523438 L 62 29.59375 C 62.515625 29.921875 62.902344 30.367188 63.160156 30.921875 L 71.261719 27.953125 C 71.222656 27.8125 71.207031 27.671875 71.210938 27.53125 C 71.210938 27.441406 71.414062 27.359375 71.695312 27.253906 C 71.566406 27.054688 71.410156 26.765625 71.277344 26.558594 C 71.527344 26.429688 71.789062 26.332031 72.0625 26.261719 C 72.347656 26.25 72.628906 26.265625 72.914062 26.316406 L 73.101562 26.617188 C 72.859375 26.796875 72.617188 26.996094 72.382812 27.171875 C 72.382812 27.296875 72.410156 27.414062 72.429688 27.523438 L 75.707031 26.335938 C 75.742188 25.890625 75.769531 25.492188 75.800781 25.101562 L 76.035156 25.054688 L 76.492188 26.050781 L 77.117188 25.820312 C 77.097656 25.726562 77.089844 25.632812 77.085938 25.539062 C 77.117188 25.246094 77.175781 24.957031 77.261719 24.675781 L 77.574219 24.550781 C 77.71875 24.863281 77.890625 25.179688 78.015625 25.519531 L 83.46875 23.539062 C 83.511719 23.523438 83.558594 23.507812 83.605469 23.496094 C 83.605469 23.355469 83.652344 23.210938 83.683594 23.050781 L 85.085938 23.214844 L 84.96875 23.351562 C 85.613281 23.410156 86.195312 23.632812 86.714844 24.015625 C 87.234375 24.402344 87.613281 24.894531 87.855469 25.496094 C 87.957031 25.507812 88.058594 25.53125 88.15625 25.558594 C 88.25 25.59375 88.203125 26.003906 88.15625 26.363281 L 88.753906 27.976562 C 89.390625 27.832031 90 27.902344 90.585938 28.179688 L 89.429688 25.015625 C 89.066406 24 88.4375 23.183594 87.550781 22.566406 Z M 16.855469 46.953125 L 16.886719 46.953125 C 17.175781 46.59375 17.484375 46.253906 17.816406 45.933594 C 18.035156 45.789062 18.273438 45.679688 18.527344 45.609375 L 18.039062 46.855469 C 17.667969 46.953125 17.285156 46.988281 16.902344 46.953125 C 16.886719 46.964844 16.878906 46.976562 16.867188 46.992188 C 15.980469 48.113281 15.484375 48.171875 14.4375 47.1875 C 15.273438 47.054688 15.855469 46.113281 16.855469 46.953125 Z M 5.953125 45.789062 L 5.988281 45.820312 C 6.195312 45.714844 6.503906 45.589844 6.824219 45.410156 C 6.925781 46.074219 7.121094 46.53125 6.992188 46.730469 C 6.8125 47.007812 6.394531 47.089844 6.074219 47.253906 C 6.035156 47.128906 5.980469 47 5.933594 46.875 C 5.933594 47.886719 5.964844 48.902344 6.027344 49.914062 L 5.507812 50.101562 C 4.9375 50.308594 4.425781 50.605469 3.964844 50.996094 C 3.847656 50.777344 3.742188 50.566406 3.644531 50.347656 C 2.890625 50.707031 2.03125 50.738281 1.367188 51.230469 C 2.011719 50.582031 2.648438 49.917969 3.273438 49.234375 C 3.203125 48.953125 3.15625 48.664062 3.140625 48.375 C 3.125 47.25 3.371094 46.1875 3.878906 45.179688 C 3.601562 44.941406 3.382812 44.65625 3.222656 44.332031 L 4.195312 44.609375 L 4.316406 44.378906 C 4.316406 44.179688 4.277344 44.027344 4.261719 43.894531 L 4.457031 44.113281 C 4.941406 43.242188 5.519531 42.359375 6.109375 41.453125 L 6.40625 41 C 6.164062 42.589844 6.011719 44.183594 5.953125 45.789062 Z M 6.316406 38.992188 C 7.359375 38.117188 7.453125 39.960938 8.207031 39.988281 C 7.246094 40.714844 6.886719 39.53125 6.316406 38.992188 Z M 8.824219 32.304688 C 8.105469 32.058594 7.457031 31.6875 6.882812 31.183594 C 6.675781 31.019531 6.714844 30.472656 6.683594 30.300781 C 7.128906 28.898438 7.804688 28.640625 8.566406 29.496094 C 9.015625 30.03125 9.351562 30.628906 9.570312 31.292969 C 9.839844 32 9.292969 32.4375 8.824219 32.300781 Z M 14.621094 25.535156 C 14.597656 25.8125 14.136719 25.984375 13.890625 26.210938 L 13.621094 26.03125 C 13.621094 25.230469 13.582031 24.421875 13.558594 23.515625 C 14.589844 23.984375 14.691406 24.78125 14.621094 25.535156 Z M 17.296875 18.253906 C 17.398438 18.664062 17.5 19.0625 17.597656 19.460938 C 17.109375 19.851562 16.746094 19.945312 16.460938 19.179688 C 13.574219 22.441406 11.257812 26.066406 9.5 30.050781 C 9.5 29.652344 9.460938 29.253906 9.4375 28.855469 C 9.4375 28.730469 9.4375 28.597656 9.4375 28.472656 C 8.175781 28.703125 7.746094 28.402344 7.492188 27.015625 C 8.140625 27.421875 8.992188 27.21875 9.4375 27.984375 C 9.300781 25.421875 9.28125 23.039062 10.410156 21.339844 C 10.734375 20.859375 11.128906 20.441406 11.589844 20.09375 C 12.875 19.195312 14.257812 18.503906 15.746094 18.015625 C 15.625 17.828125 15.574219 17.621094 15.589844 17.398438 C 15.601562 17.179688 15.679688 16.980469 15.824219 16.8125 C 16.085938 16.507812 16.660156 16.558594 17.089844 16.453125 L 17.253906 16.835938 L 17.058594 17.039062 C 17.089844 17.195312 17.128906 17.339844 17.167969 17.492188 L 18.550781 16.964844 C 18.089844 17.398438 17.691406 17.8125 17.316406 18.234375 Z M 23.613281 15.753906 L 23.296875 15.777344 L 21.785156 13.746094 C 22.851562 13.472656 23.394531 14.054688 23.785156 14.71875 C 23.925781 14.953125 23.683594 15.382812 23.632812 15.734375 Z M 60.972656 9.585938 C 60.734375 8.917969 60.597656 8.527344 60.484375 8.179688 L 62.039062 7.417969 L 62.195312 7.621094 Z M 55.222656 5.421875 C 55.445312 5.78125 55.605469 6.167969 55.707031 6.578125 L 53.3125 6.578125 C 53.269531 6.09375 53.3125 5.386719 53.550781 5.164062 C 53.171875 5.117188 52.792969 5.066406 52.414062 5.027344 L 52.929688 4.847656 C 53.949219 4.496094 54.945312 4.148438 55.90625 3.878906 C 54.839844 2.421875 54.882812 2.246094 55.148438 1.25 C 55.636719 2.058594 56.183594 2.867188 56.703125 3.679688 C 57.921875 3.359375 59.140625 3.359375 60.359375 3.679688 C 62.394531 4.304688 63.984375 6.367188 65.652344 8.578125 C 62.3125 7.074219 58.835938 6.023438 55.222656 5.421875 Z M 67.371094 8.578125 C 67.085938 8.863281 66.761719 9.09375 66.398438 9.265625 C 66.25 8.921875 65.972656 8.5625 65.992188 8.222656 C 65.992188 7.980469 66.417969 7.761719 66.871094 7.316406 C 67.171875 7.964844 67.492188 8.464844 67.40625 8.578125 Z M 76.605469 18.117188 C 76.019531 17.382812 75.40625 16.921875 75.332031 16.425781 C 75.277344 16.058594 75.929688 15.640625 76.464844 15.007812 C 76.5 16.175781 76.539062 16.976562 76.605469 18.117188 Z M 83.527344 23.019531 C 83.152344 23.117188 82.769531 23.152344 82.382812 23.117188 L 82.351562 23.15625 C 81.460938 24.277344 80.964844 24.335938 79.921875 23.351562 C 80.761719 23.253906 81.34375 22.3125 82.351562 23.15625 L 82.382812 23.15625 C 82.675781 22.800781 82.984375 22.464844 83.3125 22.140625 C 83.53125 21.996094 83.769531 21.886719 84.023438 21.816406 Z M 84.46875 21.652344 C 83.929688 21.667969 83.40625 21.769531 82.898438 21.957031 L 82.414062 22.136719 C 82.144531 21.773438 81.863281 21.402344 81.582031 21.039062 C 80.296875 19.394531 78.894531 17.851562 77.378906 16.417969 C 79.84375 17.144531 82.125 17.921875 83.410156 19.574219 C 83.890625 20.199219 84.238281 20.898438 84.449219 21.660156 Z M 84.34375 18.535156 L 84.03125 18.535156 L 82.515625 16.523438 C 83.578125 16.246094 84.125 16.835938 84.511719 17.496094 C 84.632812 17.761719 84.382812 18.199219 84.324219 18.542969 Z M 84.34375 18.535156 " fill-opacity="1" fill-rule="nonzero"/></g><path fill="#16973c" d="M 32.894531 65.128906 C 32.933594 64.863281 33.039062 64.621094 33.207031 64.410156 C 33.375 64.199219 33.585938 64.046875 33.839844 63.949219 C 33.839844 64.230469 33.867188 64.507812 33.882812 64.773438 L 39.921875 62.574219 C 40.03125 62.515625 40.144531 62.472656 40.261719 62.453125 L 41.644531 61.96875 C 41.519531 61.859375 41.414062 61.738281 41.316406 61.605469 C 41.070312 61.273438 40.832031 60.933594 40.585938 60.597656 L 40.320312 60.695312 C 40.375 61.003906 40.433594 61.316406 40.5 61.726562 C 40.148438 61.542969 39.921875 61.261719 39.816406 60.878906 L 28.292969 65.070312 L 28.90625 65.804688 C 28.746094 65.886719 28.535156 66.113281 28.355469 66.070312 C 28.007812 65.914062 27.75 65.667969 27.574219 65.328125 L 23.910156 66.664062 C 24.289062 66.976562 24.433594 67.289062 24.523438 68.191406 Z M 32.894531 65.128906 " fill-opacity="1" fill-rule="nonzero"/><path fill="#16973c" d="M 15.988281 34.273438 C 15.753906 34.1875 15.5625 34.042969 15.421875 33.835938 C 15.058594 34.753906 14.734375 35.683594 14.449219 36.617188 C 14.570312 36.546875 14.703125 36.507812 14.839844 36.5 C 15.117188 36.5 15.484375 36.84375 15.761719 37.191406 C 16.980469 33.148438 18.894531 29.460938 21.496094 26.132812 L 21.316406 25.980469 L 21.800781 25.363281 L 21.957031 25.539062 C 23.546875 23.605469 25.328125 21.871094 27.300781 20.332031 C 28.289062 19.570312 29.308594 18.859375 30.367188 18.203125 C 30.511719 17.738281 30.808594 17.414062 31.257812 17.234375 C 31.257812 17.386719 31.257812 17.523438 31.28125 17.671875 C 34.769531 15.664062 38.492188 14.324219 42.460938 13.648438 L 42.519531 12.195312 C 40.851562 12.464844 39.207031 12.851562 37.59375 13.355469 C 37.429688 13.796875 37.261719 14.234375 37.109375 14.667969 L 36.65625 14.386719 C 36.785156 14.105469 36.910156 13.820312 37.03125 13.539062 C 36.691406 13.648438 36.355469 13.773438 36.015625 13.898438 C 36.015625 14.105469 36.015625 14.328125 36.015625 14.566406 L 35.613281 14.042969 C 32.292969 15.304688 29.234375 17.03125 26.4375 19.21875 C 26.144531 19.445312 25.855469 19.679688 25.570312 19.917969 C 25.601562 20.171875 25.585938 20.421875 25.535156 20.671875 C 25.40625 21.007812 25.1875 21.265625 24.878906 21.453125 C 24.808594 21.5 24.390625 21.164062 24.332031 21 C 23.097656 22.128906 21.945312 23.339844 20.882812 24.632812 L 20.945312 24.632812 L 21.078125 25.082031 C 20.726562 25.285156 20.378906 25.492188 20.023438 25.691406 C 18.472656 27.738281 17.164062 29.925781 16.089844 32.257812 L 16.324219 32.410156 C 16.203125 32.488281 16.070312 32.554688 15.933594 32.609375 L 15.746094 33.035156 L 16.539062 34.003906 C 16.378906 34.09375 16.167969 34.316406 15.988281 34.273438 Z M 15.988281 34.273438 " fill-opacity="1" fill-rule="nonzero"/><path fill="#16973c" d="M 89.109375 28.945312 L 89.402344 28.621094 L 88.914062 28.390625 Z M 89.109375 28.945312 " fill-opacity="1" fill-rule="nonzero"/><path fill="#16973c" d="M 69.992188 74.914062 L 70.097656 74.832031 C 70.179688 74.285156 70.296875 73.742188 70.449219 73.207031 C 70.632812 72.921875 70.890625 72.8125 71.222656 72.875 C 71.476562 72.984375 71.691406 73.144531 71.863281 73.363281 C 74.210938 71.257812 76.238281 68.882812 77.945312 66.230469 C 77.875 65.835938 77.914062 65.453125 78.058594 65.078125 L 78.371094 65.566406 C 80.597656 61.917969 82.117188 58 82.921875 53.800781 C 82.433594 53.648438 81.996094 53.40625 81.613281 53.070312 C 81.136719 55.695312 80.363281 58.230469 79.292969 60.675781 C 79.46875 60.675781 79.648438 60.648438 79.824219 60.625 L 80.0625 60.886719 C 79.765625 61.285156 79.421875 61.640625 79.035156 61.953125 C 78.992188 61.953125 78.90625 61.90625 78.796875 61.792969 C 77.046875 65.4375 74.710938 68.65625 71.792969 71.457031 L 72.027344 71.570312 L 71.640625 72.972656 C 71.425781 72.667969 71.234375 72.394531 71.066406 72.144531 C 70.4375 72.710938 69.796875 73.269531 69.121094 73.792969 C 68.285156 74.449219 67.425781 75.050781 66.550781 75.609375 C 66.558594 76.367188 66.339844 77.054688 65.890625 77.667969 C 67.320312 76.847656 68.6875 75.929688 69.992188 74.914062 Z M 68.308594 74.515625 C 68.503906 74.308594 68.71875 74.125 68.957031 73.964844 L 69.28125 74.070312 C 69.222656 74.570312 69.105469 75.054688 68.933594 75.527344 C 68.875 75.632812 68.277344 75.363281 67.929688 75.265625 C 68.027344 75 68.15625 74.746094 68.308594 74.507812 Z M 68.308594 74.515625 " fill-opacity="1" fill-rule="nonzero"/><path fill="#16973c" d="M 92.425781 38.050781 C 92.5625 38.414062 92.632812 38.792969 92.644531 39.183594 C 92.800781 39.105469 92.945312 39.007812 93.074219 38.882812 C 93.308594 38.675781 93.742188 38.738281 94.082031 38.679688 L 94.167969 39.109375 L 92.882812 39.59375 L 94.160156 40.429688 C 94.394531 39.441406 94.335938 38.46875 93.988281 37.515625 L 92.46875 33.355469 C 92.46875 33.414062 92.46875 33.476562 92.46875 33.539062 C 92.46875 33.8125 91.980469 33.992188 91.734375 34.214844 L 91.46875 34.035156 C 91.46875 33.234375 91.429688 32.429688 91.402344 31.519531 C 91.601562 31.609375 91.777344 31.722656 91.9375 31.863281 L 90.863281 28.929688 L 89.191406 29.152344 Z M 92.425781 38.050781 " fill-opacity="1" fill-rule="nonzero"/><g clip-path="url(#48af198c0c)"><path fill="#16973c" d="M 94.144531 40.414062 C 93.890625 40.589844 93.609375 40.6875 93.300781 40.710938 L 94.363281 41.988281 C 94.203125 42.070312 93.996094 42.292969 93.8125 42.25 C 93.351562 42.136719 92.789062 41.277344 92.507812 40.398438 L 92.449219 40.339844 C 92.28125 40.835938 92.015625 41.273438 91.648438 41.648438 C 91.28125 42.023438 90.851562 42.300781 90.359375 42.480469 L 89.386719 42.839844 C 89.96875 43.328125 90 43.773438 90.128906 46.367188 C 90.128906 46.628906 89.910156 46.878906 89.796875 47.136719 L 89.53125 46.976562 C 89.351562 45.636719 89.179688 44.300781 89.007812 42.980469 L 80.0625 46.234375 C 80.105469 46.621094 80.152344 47.015625 80.203125 47.410156 C 80.085938 47.035156 79.914062 46.6875 79.691406 46.367188 L 70.546875 49.671875 L 70.917969 49.914062 C 70.714844 50.085938 70.480469 50.1875 70.210938 50.210938 C 69.945312 50.238281 69.695312 50.183594 69.460938 50.054688 L 62.65625 52.535156 C 62.78125 52.628906 62.890625 52.730469 62.992188 52.847656 C 63.074219 52.945312 62.648438 53.429688 62.453125 53.734375 C 62.242188 53.53125 62.050781 53.308594 61.878906 53.070312 C 61.84375 53.003906 61.8125 52.933594 61.78125 52.859375 L 58.980469 53.878906 C 59.191406 54.070312 59.394531 54.273438 59.585938 54.488281 C 59.320312 54.792969 59.007812 55.042969 58.652344 55.238281 C 58.527344 55.289062 58.167969 54.828125 57.652344 54.359375 L 56.679688 54.714844 C 56.75 55.277344 56.8125 55.835938 56.878906 56.398438 L 65.835938 53.140625 L 65.691406 52.019531 C 66.136719 52.335938 66.390625 52.507812 66.546875 52.886719 L 78.910156 48.390625 C 78.910156 48.367188 78.910156 48.34375 78.910156 48.320312 L 78.976562 48.359375 L 82.15625 47.242188 C 82.144531 49.011719 81.992188 50.769531 81.707031 52.515625 L 82.140625 52.640625 C 82.101562 52.300781 82.074219 52.066406 82.054688 51.890625 L 83.070312 53 C 83.417969 50.925781 83.578125 48.835938 83.554688 46.730469 L 87.613281 45.273438 C 87.683594 46.796875 87.664062 48.324219 87.554688 49.847656 L 88.324219 50.226562 C 88.269531 50.394531 88.214844 50.566406 88.15625 50.710938 L 87.511719 50.351562 C 87.433594 51.289062 87.328125 52.226562 87.179688 53.15625 L 88.707031 52.78125 C 88.839844 53.128906 88.980469 53.511719 89.230469 54.175781 L 87.128906 53.480469 C 86.457031 57.566406 85.175781 61.449219 83.28125 65.132812 C 83.71875 65.296875 84.140625 65.484375 84.550781 65.695312 C 84.773438 65.863281 84.964844 66.058594 85.128906 66.277344 L 83.824219 66.207031 C 83.585938 65.878906 83.402344 65.523438 83.277344 65.136719 C 81.105469 69.363281 78.257812 73.070312 74.734375 76.261719 C 74.566406 76.722656 74.367188 77.183594 74.128906 77.746094 L 74.441406 78.402344 C 74.285156 78.761719 74.074219 79.085938 73.804688 79.371094 C 73.804688 79.371094 73.804688 79.410156 73.804688 79.425781 C 74.074219 80.882812 73.804688 81.335938 72.449219 81.5 C 72.902344 80.761719 72.578125 79.652344 73.804688 79.425781 C 73.808594 79.414062 73.808594 79.40625 73.804688 79.394531 C 73.726562 78.921875 73.671875 78.445312 73.640625 77.964844 C 73.644531 77.816406 73.671875 77.675781 73.722656 77.535156 C 73.722656 77.425781 73.683594 77.324219 73.664062 77.214844 C 73.285156 77.535156 72.898438 77.855469 72.5 78.164062 C 70.777344 79.496094 68.960938 80.679688 67.046875 81.710938 C 67.074219 81.789062 67.082031 81.847656 67.046875 81.875 C 66.761719 82.164062 66.4375 82.394531 66.074219 82.570312 C 66.035156 82.480469 65.988281 82.386719 65.9375 82.292969 C 64.382812 83.070312 62.785156 83.742188 61.144531 84.308594 C 59.5 84.871094 57.828125 85.328125 56.125 85.675781 C 54.421875 86.019531 52.707031 86.253906 50.972656 86.375 C 49.238281 86.492188 47.503906 86.5 45.769531 86.394531 C 44.039062 86.285156 42.316406 86.066406 40.613281 85.730469 C 38.90625 85.398438 37.230469 84.953125 35.585938 84.398438 C 33.9375 83.847656 32.335938 83.1875 30.777344 82.421875 C 29.214844 81.65625 27.714844 80.792969 26.265625 79.832031 C 25.882812 79.894531 25.488281 79.671875 24.941406 79.152344 C 25.03125 79.144531 25.117188 79.125 25.203125 79.09375 C 24.667969 78.710938 24.144531 78.3125 23.625 77.902344 L 21.582031 77.226562 C 21.582031 77.136719 21.582031 77.054688 21.582031 76.96875 L 22.296875 76.792969 C 20.394531 75.140625 18.667969 73.324219 17.117188 71.34375 C 17.019531 71.222656 16.925781 71.097656 16.835938 70.96875 L 20.890625 69.511719 C 21.4375 70.171875 22.003906 70.796875 22.582031 71.410156 C 22.800781 71.183594 23.09375 70.925781 23.355469 70.613281 C 23.386719 71.234375 23.410156 71.753906 23.433594 72.285156 C 27.035156 75.828125 31.210938 78.472656 35.957031 80.210938 C 36.011719 79.972656 35.851562 79.726562 35.160156 79.492188 L 35.648438 78.574219 C 36.046875 78.832031 36.320312 78.953125 36.527344 78.90625 C 33.769531 77.898438 31.1875 76.558594 28.78125 74.878906 C 26.371094 73.199219 24.222656 71.242188 22.324219 69.003906 L 23.785156 68.472656 L 23.566406 66.796875 L 14.617188 70.050781 C 14.667969 70.445312 14.710938 70.835938 14.757812 71.230469 C 14.644531 70.855469 14.472656 70.507812 14.25 70.1875 L 13.019531 70.632812 C 12.585938 70.792969 12.136719 70.863281 11.675781 70.839844 C 11.214844 70.820312 10.777344 70.714844 10.359375 70.515625 C 9.941406 70.320312 9.574219 70.050781 9.265625 69.710938 C 8.953125 69.367188 8.722656 68.980469 8.566406 68.546875 L 4.003906 56.074219 C 3.90625 55.804688 3.84375 55.527344 3.816406 55.238281 C 3.3125 55.511719 2.78125 55.683594 2.214844 55.753906 C 2.269531 56.054688 2.34375 56.351562 2.449219 56.636719 L 3.113281 58.46875 L 4.503906 60.648438 C 4.476562 60.746094 4.441406 60.84375 4.40625 60.9375 C 4.261719 60.871094 4.101562 60.824219 3.949219 60.765625 L 6.339844 67.316406 C 6.765625 67.078125 7.3125 67.097656 7.765625 66.832031 C 7.644531 67.875 7.386719 68.289062 6.703125 68.335938 L 6.992188 69.136719 C 7.367188 70.144531 7.992188 70.957031 8.878906 71.566406 C 9.019531 72.492188 9.261719 73.390625 9.609375 74.261719 L 9.683594 74.296875 C 10.050781 74.636719 10.371094 75.011719 10.65625 75.421875 L 10.132812 75.371094 C 10.320312 75.691406 10.527344 76 10.753906 76.292969 C 12.496094 78.515625 15.152344 79.503906 17.859375 80.308594 C 17.859375 80.222656 17.804688 80.132812 17.78125 80.042969 C 18.414062 80.089844 18.871094 79.992188 19.039062 80.171875 C 19.167969 80.335938 19.246094 80.519531 19.277344 80.722656 C 20.28125 81.007812 21.246094 81.289062 22.136719 81.625 C 22.117188 81.535156 22.105469 81.445312 22.105469 81.351562 C 22.136719 81.058594 22.195312 80.769531 22.28125 80.488281 L 22.59375 80.363281 C 22.847656 80.824219 23.046875 81.308594 23.191406 81.820312 C 23.191406 81.867188 23.097656 81.925781 22.960938 81.984375 C 23.445312 82.195312 23.910156 82.449219 24.347656 82.742188 C 25.066406 83.253906 25.714844 83.839844 26.292969 84.507812 C 26.949219 83.820312 27.597656 84.109375 28.125 85.429688 C 28.125 85.605469 28.183594 86.148438 27.992188 86.3125 L 27.851562 86.429688 C 28.027344 86.660156 28.207031 86.914062 28.382812 87.128906 C 30.292969 89.652344 32.269531 92.261719 35.214844 93.167969 C 35.441406 93.238281 35.671875 93.289062 35.898438 93.339844 C 35.855469 92.808594 35.933594 92.296875 36.132812 91.804688 C 36.273438 92.351562 36.40625 92.902344 36.550781 93.449219 C 39.160156 93.773438 41.820312 92.859375 44.402344 91.964844 C 46.417969 91.269531 48.320312 90.605469 50.042969 90.585938 C 51.761719 90.566406 53.664062 91.152344 55.679688 91.78125 C 56.871094 92.148438 58.070312 92.523438 59.277344 92.78125 C 59.199219 92.585938 59.128906 92.378906 59.050781 92.1875 L 59.003906 92.164062 C 57.660156 91.609375 57.429688 91.132812 57.929688 89.8125 C 58.328125 90.625 59.386719 90.925781 59.003906 92.164062 L 59.003906 92.199219 C 59.433594 92.382812 59.855469 92.589844 60.261719 92.820312 C 60.34375 92.875 60.417969 92.9375 60.480469 93.011719 C 61.984375 93.261719 63.460938 93.148438 64.914062 92.679688 C 65.582031 92.4375 66.207031 92.117188 66.789062 91.707031 C 66.492188 91.613281 66.234375 91.449219 66.019531 91.222656 C 65.890625 91.011719 66.078125 90.566406 66.167969 89.914062 C 66.753906 90.265625 67.289062 90.46875 67.289062 90.613281 C 67.265625 90.941406 67.1875 91.25 67.046875 91.542969 L 67.210938 91.421875 C 68.898438 90.105469 70.1875 88.203125 71.453125 86.347656 C 71.699219 85.980469 71.953125 85.609375 72.210938 85.242188 C 72.035156 85.03125 71.875 84.808594 71.726562 84.574219 C 71.761719 84.464844 71.792969 84.351562 71.824219 84.242188 C 72.121094 84.332031 72.425781 84.40625 72.71875 84.503906 C 73.449219 83.457031 74.308594 82.523438 75.292969 81.710938 C 76.25 81.015625 77.28125 80.453125 78.382812 80.027344 C 78.011719 79.195312 78 78.359375 78.355469 77.515625 C 78.554688 78.28125 78.730469 79.046875 78.957031 79.792969 C 79.527344 79.570312 80.109375 79.355469 80.683594 79.144531 C 82.960938 78.304688 85.300781 77.445312 87.035156 75.929688 C 86.898438 75.96875 86.796875 75.984375 86.773438 75.929688 C 86.550781 75.457031 86.390625 74.960938 86.285156 74.449219 L 86.605469 74.347656 C 86.855469 74.507812 87.082031 74.691406 87.292969 74.894531 C 87.410156 75.046875 87.507812 75.207031 87.585938 75.382812 C 87.890625 75.058594 88.167969 74.714844 88.414062 74.34375 C 88.722656 73.871094 88.976562 73.371094 89.179688 72.847656 C 89.007812 72.601562 88.910156 72.328125 88.886719 72.03125 C 88.886719 71.808594 89.242188 71.605469 89.644531 71.242188 C 89.722656 70.835938 89.78125 70.429688 89.824219 70.015625 C 89.523438 70.449219 89.308594 70.921875 89.179688 71.433594 C 89.226562 70.234375 89.273438 69.042969 89.324219 67.832031 L 89.742188 68.464844 L 89.90625 68.214844 C 89.90625 67.191406 89.855469 66.15625 89.796875 65.132812 L 89.796875 64.90625 C 89.515625 64.773438 89.265625 64.597656 89.050781 64.375 C 88.960938 64.265625 89.242188 63.765625 89.460938 63.113281 L 89.722656 63.34375 C 89.628906 62.007812 89.726562 60.683594 90.007812 59.375 C 90.371094 58.199219 90.886719 57.09375 91.558594 56.058594 C 91.09375 55.96875 90.707031 55.742188 90.402344 55.378906 C 91.089844 55.300781 91.601562 54.667969 92.308594 54.894531 L 92.722656 54.257812 C 94.46875 51.578125 96.277344 48.800781 96.121094 45.648438 C 96.019531 43.757812 95.214844 42.074219 94.148438 40.492188 C 94.140625 40.449219 94.144531 40.449219 94.144531 40.414062 Z M 13.957031 77.996094 C 13.511719 77.746094 13.105469 77.441406 12.738281 77.089844 C 12.796875 76.992188 12.859375 76.894531 12.921875 76.796875 C 13.203125 76.765625 13.484375 76.765625 13.769531 76.796875 C 14.042969 76.886719 14.308594 77.003906 14.558594 77.148438 C 14.371094 77.453125 14.089844 78.046875 13.972656 77.996094 Z M 20.480469 76.976562 C 20.371094 77.726562 20.125 78.425781 19.746094 79.074219 C 19.5625 79.316406 19.328125 79.402344 19.03125 79.335938 C 18.738281 79.269531 18.5625 79.085938 18.507812 78.789062 C 18.394531 78.496094 18.304688 78.195312 18.238281 77.886719 C 17.445312 77.5625 16.566406 77.402344 15.921875 76.621094 C 14.769531 76.175781 13.796875 75.484375 13.003906 74.542969 C 12.527344 73.921875 12.183594 73.238281 11.96875 72.488281 C 12.46875 72.46875 12.957031 72.378906 13.425781 72.210938 C 13.425781 72.191406 13.425781 72.167969 13.425781 72.148438 L 13.492188 72.1875 L 13.976562 72.007812 C 14.25 72.371094 14.519531 72.742188 14.804688 73.105469 C 15.8125 74.390625 16.894531 75.617188 18.042969 76.78125 C 18.089844 75.648438 18.769531 75.414062 19.988281 76.195312 C 20.164062 76.328125 20.542969 76.722656 20.492188 76.976562 Z M 30.085938 89.148438 L 28.722656 87.207031 L 28.863281 87 L 30.476562 87.769531 C 30.394531 88.089844 30.285156 88.480469 30.101562 89.148438 Z M 43.054688 89.40625 L 42.679688 89.625 L 42.644531 89.546875 C 41.625 89.910156 40.585938 90.210938 39.53125 90.449219 L 40.644531 91.503906 L 40.449219 91.789062 C 39.519531 91.761719 38.859375 91.304688 38.71875 90.589844 C 37.820312 90.734375 36.929688 90.679688 36.054688 90.433594 C 34.023438 89.8125 32.433594 87.746094 30.761719 85.535156 C 32.617188 86.371094 34.519531 87.066406 36.472656 87.625 L 36.472656 87.292969 C 36.753906 87.417969 36.992188 87.59375 37.1875 87.828125 C 38.910156 88.292969 40.65625 88.648438 42.421875 88.894531 L 42.042969 87.980469 L 42.328125 87.765625 L 43.859375 88.441406 L 43.992188 88.890625 L 43.710938 89.050781 L 44.015625 89.089844 C 43.839844 89.148438 43.671875 89.203125 43.5 89.265625 Z M 45.226562 90.628906 L 44.183594 89.761719 L 44.671875 89.144531 C 44.972656 89.488281 45.269531 89.832031 45.570312 90.171875 Z M 63.054688 83.953125 L 63.378906 83.851562 C 63.625 84.011719 63.855469 84.195312 64.066406 84.402344 C 64.238281 84.644531 64.382812 84.902344 64.503906 85.171875 C 64.164062 85.269531 63.585938 85.546875 63.53125 85.433594 C 63.320312 84.960938 63.167969 84.464844 63.070312 83.953125 Z M 49.933594 89.582031 L 51.925781 86.726562 C 51.925781 86.902344 51.925781 87.140625 51.957031 87.480469 L 53.011719 87.0625 C 52.453125 88.773438 50.878906 88.644531 49.953125 89.582031 Z M 54.167969 88.027344 C 54.394531 87.863281 54.636719 87.726562 54.898438 87.613281 C 55.171875 87.554688 55.453125 87.527344 55.738281 87.53125 L 55.96875 87.804688 C 55.65625 88.1875 55.300781 88.523438 54.898438 88.8125 C 54.8125 88.871094 54.441406 88.308594 54.1875 88.023438 Z M 69.863281 88.351562 C 69.757812 88.441406 69.28125 88.101562 68.667969 87.8125 C 69.09375 87.328125 69.304688 86.90625 69.539062 86.890625 C 69.859375 86.890625 70.199219 87.167969 70.511719 87.328125 C 70.359375 87.707031 70.152344 88.046875 69.882812 88.351562 Z M 69.136719 84.703125 C 68.507812 85.625 67.890625 86.527344 67.253906 87.324219 L 67.445312 88.933594 C 67.3125 88.523438 67.125 88.136719 66.871094 87.785156 C 66.144531 88.707031 65.246094 89.414062 64.179688 89.902344 C 64.417969 90.023438 64.648438 90.15625 64.867188 90.308594 C 65.132812 90.449219 65.265625 90.667969 65.265625 90.96875 C 65.265625 91.269531 65.132812 91.488281 64.867188 91.628906 C 64.183594 91.886719 63.472656 91.992188 62.742188 91.949219 C 62.488281 91.949219 62.199219 91.464844 62.070312 91.359375 C 61.941406 91.003906 61.878906 90.636719 61.878906 90.261719 C 60.226562 90.207031 58.394531 89.640625 56.492188 89.050781 C 56.113281 88.929688 55.726562 88.8125 55.347656 88.703125 C 56.417969 88.523438 57.480469 88.285156 58.535156 88.023438 C 58.484375 87.199219 58.445312 86.566406 58.40625 85.988281 C 58.144531 86.25 57.84375 86.460938 57.507812 86.613281 L 56.324219 85.980469 C 56.5625 85.871094 56.8125 85.800781 57.074219 85.769531 C 57.519531 85.804688 57.960938 85.867188 58.402344 85.949219 L 58.402344 85.875 L 58.527344 85.828125 C 58.792969 84.683594 59.800781 84.988281 60.472656 84.53125 C 60.320312 85.867188 59.941406 86.191406 58.742188 85.988281 L 59.605469 87.339844 L 58.933594 87.921875 C 61.324219 87.296875 63.640625 86.464844 65.886719 85.429688 C 65.882812 85.289062 65.890625 85.148438 65.914062 85.007812 L 66.140625 85.308594 C 67.53125 84.660156 68.882812 83.9375 70.195312 83.140625 C 69.863281 83.652344 69.511719 84.183594 69.15625 84.703125 Z M 68.964844 82.875 L 68.773438 82.710938 C 68.984375 82.226562 69.199219 81.765625 69.511719 81.085938 L 70.847656 81.613281 Z M 86.972656 65.269531 C 87.136719 68.152344 87.289062 70.875 86.054688 72.765625 C 84.949219 74.433594 82.699219 75.347656 80.25 76.261719 L 80.320312 76.261719 C 80.777344 76.296875 81.230469 76.359375 81.683594 76.445312 L 81.714844 76.445312 C 81.941406 75.15625 82.992188 75.503906 83.699219 75.035156 C 83.535156 76.453125 83.121094 76.730469 81.714844 76.445312 L 81.660156 76.445312 C 81.386719 76.71875 81.078125 76.9375 80.726562 77.105469 L 79.605469 76.503906 C 79.03125 76.707031 78.457031 76.921875 77.886719 77.144531 C 81.726562 73.367188 84.722656 69.019531 86.878906 64.089844 C 86.941406 64.476562 86.96875 64.875 86.992188 65.269531 Z M 87.890625 63.191406 L 85.902344 60.15625 L 86.59375 60.410156 C 86.570312 60.054688 86.554688 59.734375 86.523438 59.210938 C 87.914062 60.417969 87.335938 61.929688 87.910156 63.191406 Z M 88.648438 57.988281 C 88.671875 58.113281 88.054688 58.273438 87.730469 58.417969 C 87.648438 58.132812 87.59375 57.84375 87.570312 57.546875 C 87.597656 57.25 87.65625 56.964844 87.746094 56.679688 L 88.054688 56.554688 C 88.316406 57.007812 88.519531 57.488281 88.667969 57.988281 Z M 87.675781 48.214844 C 87.621094 47.847656 88.269531 47.429688 88.808594 46.792969 C 88.855469 47.941406 88.894531 48.734375 88.949219 49.898438 C 88.367188 49.1875 87.753906 48.699219 87.679688 48.214844 Z M 94.839844 50.550781 L 94.527344 50.550781 L 93.011719 48.539062 C 94.070312 48.261719 94.617188 48.851562 95.003906 49.511719 C 95.152344 49.769531 94.914062 50.207031 94.84375 50.550781 Z M 93.988281 46.496094 C 93.679688 46.636719 93.441406 46.773438 93.214844 46.871094 C 92.90625 48.753906 91.660156 50.667969 90.347656 52.695312 C 90.253906 52.847656 90.148438 52.996094 90.054688 53.152344 C 90.480469 50.191406 90.597656 47.222656 90.398438 44.238281 L 90.917969 44.050781 C 91.488281 43.847656 92.003906 43.550781 92.464844 43.15625 C 92.730469 43.648438 92.941406 44.164062 93.09375 44.699219 C 93.34375 44.914062 93.5625 45.15625 93.75 45.421875 C 93.894531 45.765625 93.976562 46.125 93.996094 46.496094 Z M 93.988281 46.496094 " fill-opacity="1" fill-rule="nonzero"/></g><path fill="#16973c" d="M 42.101562 60.03125 C 42.027344 60.773438 43.320312 60.375 43.496094 60.894531 C 43.074219 61.1875 42.621094 61.335938 42.390625 61.683594 L 51.382812 58.410156 C 51.34375 57.648438 51.753906 57.328125 52.558594 57.484375 C 52.8125 57.535156 53.058594 57.609375 53.292969 57.714844 L 56.761719 56.453125 C 56.523438 55.96875 56.164062 55.480469 55.878906 54.996094 Z M 42.101562 60.03125 " fill-opacity="1" fill-rule="nonzero"/><path fill="#16973c" d="M 22.0625 45.832031 L 38.960938 39.683594 C 38.933594 39.566406 38.894531 39.453125 38.84375 39.339844 C 38.683594 38.941406 38.5 38.554688 38.316406 38.171875 L 34.8125 39.4375 C 34.707031 39.574219 34.59375 39.699219 34.464844 39.8125 L 34.136719 39.71875 L 34.136719 39.679688 L 30.1875 41.136719 L 30.027344 42.03125 L 29.464844 41.902344 C 29.464844 41.730469 29.464844 41.554688 29.464844 41.382812 L 21.921875 44.132812 C 22.277344 44.941406 22.355469 45.449219 22.0625 45.832031 Z M 22.0625 45.832031 " fill-opacity="1" fill-rule="nonzero"/><path fill="#16973c" d="M 42.863281 12.148438 L 42.949219 12.285156 L 43.0625 12.121094 Z M 42.863281 12.148438 " fill-opacity="1" fill-rule="nonzero"/><path fill="#16973c" d="M 20.171875 42.257812 L 24.148438 40.800781 C 24.054688 40.675781 23.957031 40.542969 23.847656 40.402344 C 24.363281 40.3125 24.699219 40.132812 24.972656 40.234375 C 25.082031 40.273438 25.183594 40.324219 25.28125 40.390625 L 35.59375 36.640625 C 35.621094 36.421875 35.683594 36.214844 35.78125 36.015625 L 36.132812 36.457031 L 45.015625 33.234375 C 44.792969 33.054688 44.574219 32.859375 44.351562 32.679688 C 44.410156 32.582031 44.472656 32.484375 44.535156 32.390625 C 44.820312 32.359375 45.101562 32.359375 45.386719 32.390625 C 45.660156 32.476562 45.921875 32.59375 46.171875 32.738281 L 46.113281 32.820312 L 47.574219 32.289062 C 47.410156 32.109375 47.269531 31.917969 47.15625 31.710938 L 48.269531 32.03125 C 48.222656 31.691406 48.199219 31.457031 48.175781 31.28125 C 48.363281 31.484375 48.554688 31.691406 48.738281 31.898438 L 63.320312 26.597656 C 63.09375 26.015625 63.039062 25.414062 63.148438 24.800781 C 64.296875 24.730469 63.84375 25.703125 64.019531 26.339844 L 64.574219 26.140625 L 64.792969 25.921875 L 64.855469 26.035156 L 65.660156 25.742188 C 65.382812 25.441406 65.214844 25.089844 65.152344 24.683594 C 65.089844 24.277344 65.144531 23.890625 65.316406 23.519531 C 65.527344 23.257812 65.796875 23.175781 66.117188 23.273438 C 66.804688 23.765625 67.464844 24.296875 68.097656 24.859375 L 69.953125 24.183594 C 69.710938 23.957031 69.464844 23.738281 69.222656 23.519531 C 69.046875 23.804688 68.875 24.132812 68.785156 24.09375 C 68.339844 23.839844 67.933594 23.539062 67.566406 23.183594 C 67.625 23.085938 67.6875 22.996094 67.75 22.898438 C 67.996094 22.882812 68.242188 22.882812 68.488281 22.898438 C 65.257812 20.191406 61.625 18.207031 57.597656 16.953125 C 57.675781 17.238281 57.757812 17.527344 57.847656 17.816406 C 58.148438 18.761719 58.554688 18.839844 59.1875 18.273438 C 59.421875 18.0625 59.855469 18.132812 60.195312 18.066406 L 60.28125 18.5 L 59 18.984375 L 60.277344 19.820312 C 59.589844 20.253906 59.011719 20.242188 58.46875 19.65625 C 57.671875 18.796875 57.011719 17.882812 56.957031 16.777344 C 55.699219 16.414062 54.421875 16.132812 53.128906 15.925781 L 53.292969 16.277344 C 53.136719 16.636719 52.925781 16.960938 52.660156 17.246094 C 52.660156 17.246094 52.660156 17.28125 52.660156 17.300781 C 52.929688 18.757812 52.660156 19.214844 51.304688 19.375 C 51.757812 18.636719 51.429688 17.527344 52.660156 17.300781 L 52.660156 17.273438 C 52.582031 16.800781 52.527344 16.328125 52.496094 15.847656 C 49.875 15.488281 47.25 15.457031 44.621094 15.753906 C 44.394531 16.121094 44.230469 16.515625 44.136719 16.9375 L 44.179688 15.804688 C 43.734375 15.863281 43.285156 15.925781 42.839844 16.003906 C 42.921875 16.054688 43 16.113281 43.074219 16.175781 C 43.511719 16.714844 43.835938 17.316406 44.042969 17.980469 C 44.296875 18.695312 43.75 19.132812 43.28125 18.996094 C 42.558594 18.75 41.910156 18.375 41.335938 17.875 C 41.132812 17.707031 41.167969 17.160156 41.132812 16.992188 C 41.214844 16.71875 41.332031 16.460938 41.480469 16.21875 C 40.078125 16.519531 38.703125 16.917969 37.355469 17.402344 C 35.847656 17.953125 34.390625 18.613281 32.984375 19.386719 C 33.011719 19.941406 33.042969 20.472656 33.070312 20.980469 L 33.3125 20.804688 C 33.503906 21.445312 33.761719 21.875 33.664062 22.09375 C 33.527344 22.394531 33.125 22.542969 32.835938 22.757812 C 32.601562 22.398438 32.425781 22.015625 32.308594 21.601562 C 32.308594 21.539062 32.386719 21.460938 32.527344 21.359375 C 32.304688 21.21875 32.078125 21.078125 32.039062 20.875 C 31.980469 20.550781 31.980469 20.226562 32.039062 19.902344 C 30.886719 20.589844 29.78125 21.34375 28.722656 22.164062 C 26.855469 23.644531 25.175781 25.308594 23.683594 27.164062 L 24.445312 28.039062 L 24.082031 28.496094 L 23.195312 27.761719 C 20.570312 31.15625 18.722656 34.925781 17.652344 39.078125 C 17.800781 39.425781 17.878906 39.789062 17.890625 40.167969 C 17.671875 40.269531 17.492188 40.359375 17.324219 40.449219 C 17.117188 41.417969 16.945312 42.453125 16.839844 43.472656 L 19.21875 42.609375 L 18.773438 42.007812 C 19.285156 41.835938 19.753906 41.921875 20.171875 42.257812 Z M 64.007812 21.285156 C 63.707031 21.148438 63.460938 20.949219 63.269531 20.679688 C 63.222656 20.613281 63.398438 20.136719 63.492188 20.136719 C 63.851562 20.109375 64.191406 20.183594 64.503906 20.359375 C 64.867188 20.699219 65.191406 21.074219 65.476562 21.480469 L 64.605469 21.398438 L 64.824219 21.460938 L 65.042969 23.84375 L 63.84375 23.019531 C 64.15625 22.339844 64.367188 21.871094 64.585938 21.398438 C 64.390625 21.378906 64.199219 21.339844 64.007812 21.285156 Z M 57.691406 24.730469 C 57.777344 24.5 57.917969 24.304688 58.109375 24.152344 C 58.300781 23.996094 58.515625 23.902344 58.761719 23.863281 C 59.101562 23.863281 59.578125 24.390625 59.863281 24.796875 L 58.015625 26.324219 C 57.746094 25.824219 57.644531 25.292969 57.707031 24.730469 Z M 55.039062 21.902344 C 56.054688 22.617188 56.0625 22.617188 56.21875 25.753906 C 56.21875 26.019531 56.003906 26.265625 55.886719 26.523438 L 55.621094 26.371094 C 55.441406 24.871094 55.222656 23.375 55.050781 21.902344 Z M 55.4375 26.683594 L 52.003906 26.199219 L 52.613281 25.820312 L 51.699219 25.058594 C 53.4375 24.796875 54.175781 26.285156 55.449219 26.683594 Z M 52.121094 22.542969 C 52.230469 22.613281 51.960938 23.214844 51.867188 23.574219 C 51.605469 23.4375 51.363281 23.273438 51.136719 23.085938 C 50.9375 22.863281 50.761719 22.621094 50.609375 22.363281 L 50.710938 22.03125 C 51.210938 22.140625 51.683594 22.3125 52.136719 22.542969 Z M 48.355469 18.953125 L 49.691406 19.480469 L 47.824219 20.738281 L 47.632812 20.578125 C 47.84375 20.101562 48.058594 19.632812 48.371094 18.953125 Z M 48.355469 24.777344 C 48.679688 24.777344 49.019531 25.054688 49.328125 25.214844 C 49.164062 25.59375 48.941406 25.933594 48.660156 26.238281 C 48.554688 26.324219 48.078125 25.984375 47.464844 25.699219 C 47.933594 25.203125 48.164062 24.773438 48.417969 24.757812 Z M 44.53125 19.386719 C 44.53125 19.144531 44.957031 18.925781 45.410156 18.480469 C 45.683594 19.132812 46 19.632812 45.894531 19.742188 C 45.613281 20.027344 45.289062 20.257812 44.925781 20.433594 C 44.769531 20.082031 44.488281 19.726562 44.53125 19.386719 Z M 44.8125 22.871094 C 45.125 23.292969 45.296875 23.550781 45.53125 23.839844 C 45.695312 23.554688 45.808594 23.355469 45.894531 23.210938 C 46.042969 24.414062 46.183594 25.613281 46.324219 26.8125 C 45.933594 25.460938 44.53125 24.675781 44.792969 22.871094 Z M 41.832031 33.363281 L 40.644531 32.539062 C 40.957031 31.855469 41.171875 31.382812 41.386719 30.914062 L 41.625 30.980469 C 41.671875 31.664062 41.734375 32.355469 41.832031 33.363281 Z M 45.828125 29.617188 C 45.507812 29.429688 45.089844 29.316406 44.90625 29.03125 C 44.773438 28.820312 44.964844 28.375 45.050781 27.71875 C 45.632812 28.074219 46.171875 28.277344 46.171875 28.421875 C 46.125 28.839844 46.007812 29.238281 45.828125 29.617188 Z M 41.910156 21.820312 L 42.230469 21.714844 C 42.480469 21.875 42.707031 22.058594 42.917969 22.265625 C 43.089844 22.511719 43.238281 22.765625 43.359375 23.039062 C 43.019531 23.136719 42.441406 23.40625 42.386719 23.300781 C 42.171875 22.824219 42.011719 22.332031 41.910156 21.820312 Z M 38.996094 19.324219 L 40.550781 18.5625 L 40.707031 18.765625 L 39.492188 20.707031 C 39.226562 20.058594 39.09375 19.675781 38.972656 19.324219 Z M 41.914062 27.339844 C 42.578125 27.488281 43.179688 27.761719 43.730469 28.160156 C 43.992188 28.300781 44.125 28.519531 44.125 28.820312 C 44.125 29.121094 43.992188 29.339844 43.730469 29.480469 C 43.046875 29.738281 42.34375 29.851562 41.613281 29.816406 C 41.363281 29.816406 41.070312 29.332031 40.945312 29.222656 C 40.46875 27.792969 40.832031 27.144531 41.914062 27.339844 Z M 35.941406 23.636719 C 36.386719 23.671875 36.832031 23.730469 37.269531 23.8125 L 37.269531 23.742188 L 37.394531 23.695312 C 37.664062 22.550781 38.667969 22.855469 39.339844 22.398438 C 39.191406 23.726562 38.808594 24.058594 37.609375 23.855469 L 38.476562 25.203125 L 37.410156 26.132812 C 37.347656 25.160156 37.304688 24.503906 37.261719 23.851562 C 37 24.113281 36.703125 24.324219 36.367188 24.476562 L 35.179688 23.839844 C 35.425781 23.734375 35.679688 23.664062 35.941406 23.636719 Z M 36.753906 27.632812 C 37.152344 28.441406 38.210938 28.742188 37.828125 29.980469 L 37.851562 29.980469 C 37.855469 29.992188 37.855469 30 37.851562 30.011719 C 38.285156 30.199219 38.707031 30.40625 39.117188 30.636719 C 39.328125 30.8125 39.511719 31.015625 39.671875 31.242188 L 38.363281 31.113281 C 38.136719 30.769531 37.96875 30.402344 37.851562 30.011719 L 37.808594 30.011719 C 36.503906 29.429688 36.269531 28.953125 36.753906 27.632812 Z M 33.742188 25.476562 C 34.023438 25.417969 34.308594 25.390625 34.597656 25.398438 C 34.675781 25.484375 34.753906 25.578125 34.824219 25.671875 C 34.511719 26.054688 34.15625 26.390625 33.757812 26.679688 C 33.648438 26.738281 33.269531 26.195312 33.027344 25.894531 C 33.253906 25.730469 33.5 25.589844 33.757812 25.476562 Z M 30.773438 24.59375 C 30.773438 24.765625 30.773438 25.003906 30.800781 25.34375 L 31.894531 24.914062 C 31.316406 26.625 29.742188 26.492188 28.820312 27.433594 Z M 28.980469 28.796875 C 30.113281 29.945312 30.4375 29.960938 30.800781 28.796875 L 31.746094 29.203125 C 30.742188 30.878906 32.636719 30.132812 32.855469 30.773438 C 32.417969 31.070312 31.957031 31.21875 31.734375 31.574219 C 31.320312 32.21875 31.03125 31.929688 30.679688 31.460938 C 30.40625 31.097656 30.144531 30.730469 29.878906 30.363281 L 29.679688 30.53125 C 29.738281 30.84375 29.789062 31.160156 29.867188 31.582031 C 28.566406 30.820312 29.464844 29.613281 28.980469 28.796875 Z M 28.589844 32.882812 C 28.992188 32.691406 29.402344 32.289062 29.796875 32.34375 C 30.40625 32.4375 30.714844 33.039062 30.675781 33.773438 C 30.652344 34.03125 30.679688 34.285156 30.757812 34.535156 C 31.042969 35.332031 30.699219 35.503906 30.078125 35.503906 L 28.980469 33.292969 L 28.695312 33.257812 C 28.667969 33.128906 28.625 32.992188 28.582031 32.859375 Z M 22.273438 35.859375 C 22.152344 35.113281 22.191406 34.3125 23.179688 33.839844 C 23.230469 34.753906 23.273438 35.554688 23.316406 36.355469 L 23.058594 36.535156 C 22.796875 36.292969 22.332031 36.113281 22.28125 35.835938 Z M 22.273438 35.859375 " fill-opacity="1" fill-rule="nonzero"/><path fill="#16973c" d="M 55.304688 59.488281 C 55.578125 59.632812 55.84375 59.792969 56.097656 59.972656 C 56.363281 60.113281 56.496094 60.332031 56.496094 60.632812 C 56.496094 60.933594 56.363281 61.152344 56.097656 61.292969 C 55.410156 61.550781 54.699219 61.65625 53.96875 61.613281 C 53.71875 61.613281 53.429688 61.128906 53.300781 61.019531 C 53.222656 60.789062 53.164062 60.546875 53.132812 60.304688 L 42.40625 64.1875 C 42.636719 64.328125 42.808594 64.519531 42.921875 64.765625 C 43.035156 65.007812 43.066406 65.265625 43.023438 65.53125 C 43.003906 65.789062 43.03125 66.042969 43.105469 66.292969 C 43.398438 67.089844 43.046875 67.265625 42.425781 67.265625 L 41.351562 65.066406 L 41.070312 65.03125 C 41.03125 64.925781 40.996094 64.8125 40.964844 64.703125 L 35.617188 66.644531 C 35.648438 67.128906 35.671875 67.613281 35.695312 68.097656 L 35.4375 68.277344 C 35.164062 68.054688 34.699219 67.875 34.65625 67.605469 C 34.621094 67.40625 34.605469 67.207031 34.605469 67.007812 L 26.476562 69.964844 C 26.914062 70.371094 27.359375 70.765625 27.816406 71.148438 C 27.804688 71.023438 27.8125 70.898438 27.847656 70.773438 C 27.933594 70.542969 28.074219 70.351562 28.265625 70.199219 C 28.457031 70.042969 28.675781 69.949219 28.921875 69.914062 C 29.261719 69.914062 29.738281 70.4375 30.023438 70.84375 C 30.167969 71.191406 30.25 71.550781 30.261719 71.929688 C 29.886719 72.105469 29.617188 72.265625 29.359375 72.367188 C 31.3125 73.8125 33.40625 75.019531 35.636719 75.984375 C 37.867188 76.949219 40.179688 77.648438 42.574219 78.085938 C 44.964844 78.519531 47.375 78.679688 49.804688 78.5625 C 52.234375 78.445312 54.617188 78.054688 56.957031 77.390625 C 55.554688 75.523438 55.578125 75.40625 55.867188 74.316406 L 57.6875 77.167969 C 58.144531 77.027344 58.601562 76.875 59.050781 76.710938 C 59.957031 76.386719 60.835938 76.011719 61.707031 75.601562 C 61.640625 75.113281 61.636719 74.628906 62.390625 74.65625 C 62.375 74.863281 62.375 75.066406 62.390625 75.269531 C 64.863281 74.027344 67.132812 72.484375 69.199219 70.648438 C 71.269531 68.808594 73.066406 66.738281 74.589844 64.429688 C 74.375 63.972656 74.148438 63.515625 73.929688 63.054688 C 74.320312 63.269531 74.660156 63.546875 74.949219 63.890625 C 75.726562 62.65625 76.414062 61.371094 77.015625 60.039062 C 76.445312 59.65625 76.027344 59.148438 75.757812 58.515625 C 75.492188 57.882812 75.414062 57.230469 75.53125 56.554688 C 76.835938 56.46875 76.074219 57.738281 76.503906 58.328125 L 77.164062 57.671875 L 77.652344 58.535156 C 77.785156 58.191406 77.90625 57.839844 78.03125 57.496094 C 77.753906 57.195312 77.585938 56.839844 77.523438 56.433594 C 77.457031 56.03125 77.511719 55.640625 77.683594 55.269531 C 77.898438 55.003906 78.164062 54.925781 78.488281 55.027344 C 78.574219 55.082031 78.65625 55.140625 78.738281 55.207031 C 79.136719 53.710938 79.421875 52.195312 79.59375 50.65625 L 76.125 51.917969 C 76.390625 51.921875 76.640625 51.996094 76.867188 52.136719 C 77.234375 52.476562 77.558594 52.847656 77.839844 53.257812 C 77.519531 53.21875 77.234375 53.207031 76.96875 53.175781 L 77.1875 53.238281 C 77.257812 53.925781 77.320312 54.613281 77.414062 55.625 L 76.210938 54.796875 L 76.949219 53.171875 C 76.75 53.15625 76.550781 53.117188 76.359375 53.058594 C 76.054688 52.925781 75.808594 52.722656 75.617188 52.453125 C 75.585938 52.414062 75.644531 52.207031 75.714844 52.058594 L 68.34375 54.75 C 68.511719 55.667969 68.597656 56.597656 68.601562 57.53125 C 68.601562 57.792969 68.382812 58.046875 68.265625 58.304688 L 68 58.144531 C 67.863281 57.097656 67.726562 56.054688 67.589844 55.019531 L 58.625 58.277344 C 58.625 58.375 58.625 58.476562 58.664062 58.574219 C 58.632812 58.476562 58.601562 58.390625 58.566406 58.296875 Z M 38.148438 73.484375 C 37.792969 73.535156 37.457031 73.476562 37.144531 73.304688 C 36.789062 72.96875 36.476562 72.601562 36.210938 72.191406 C 36.730469 72.09375 37.0625 71.921875 37.34375 72.015625 C 37.71875 72.179688 38.027344 72.429688 38.265625 72.765625 C 38.332031 73.019531 38.292969 73.261719 38.148438 73.484375 Z M 42.289062 75.667969 L 41.722656 75.550781 C 41.722656 75.09375 41.722656 74.636719 41.722656 74.1875 L 42.507812 74.332031 C 42.449219 74.78125 42.371094 75.222656 42.289062 75.667969 Z M 43.597656 73.242188 L 42.140625 73.492188 L 41.945312 73.066406 L 42.6875 71.566406 L 43.042969 71.566406 Z M 48.144531 67.773438 L 49.714844 69.714844 L 49.628906 70.027344 C 49.289062 70.027344 48.828125 70.171875 48.65625 69.976562 C 48.324219 69.71875 48.109375 69.386719 48.011719 68.976562 C 47.917969 68.566406 47.960938 68.171875 48.144531 67.792969 Z M 46.722656 73.457031 L 46.390625 73.367188 C 46.480469 72.535156 46.566406 71.707031 46.660156 70.8125 C 47.722656 71.472656 47.671875 72.625 46.722656 73.457031 Z M 51.785156 74.78125 C 51.78125 74.855469 51.773438 74.933594 51.757812 75.007812 C 52.105469 75.863281 52.242188 76.882812 51.945312 77.261719 C 51.839844 77.410156 51.535156 77.371094 51.359375 77.410156 C 51.359375 76.824219 51.359375 76.28125 51.359375 75.75 C 51.105469 75.933594 50.824219 76.042969 50.511719 76.070312 C 50.664062 75.585938 50.785156 75.1875 50.960938 74.613281 L 49.671875 75.101562 L 49.464844 74.714844 C 49.765625 74.542969 50.050781 74.230469 50.367188 74.230469 C 51.21875 74.261719 51.476562 73.933594 51.097656 73.015625 C 50.777344 72.234375 50.382812 71.484375 50.015625 70.714844 C 51.679688 71.617188 51.859375 73.15625 51.785156 74.785156 Z M 53.730469 62.683594 L 53.96875 62.75 L 54.1875 65.132812 L 52.988281 64.308594 Z M 56.910156 69.054688 C 56.792969 69.804688 56.542969 70.503906 56.15625 71.152344 C 55.972656 71.394531 55.738281 71.480469 55.441406 71.414062 C 55.148438 71.34375 54.972656 71.164062 54.917969 70.867188 C 54.671875 70.242188 54.542969 69.59375 54.53125 68.925781 L 54.375 69.015625 C 53.792969 67.824219 54.804688 67.429688 55.070312 66.589844 C 55.328125 66.964844 55.460938 67.382812 55.476562 67.835938 C 55.84375 67.914062 56.179688 68.054688 56.492188 68.269531 C 56.585938 68.410156 56.96875 68.804688 56.917969 69.0625 Z M 57.914062 65.363281 C 57.472656 65.105469 57.0625 64.804688 56.691406 64.453125 C 56.753906 64.355469 56.816406 64.257812 56.875 64.164062 C 57.15625 64.128906 57.441406 64.128906 57.726562 64.164062 C 58 64.25 58.261719 64.367188 58.511719 64.511719 C 58.316406 64.816406 58.035156 65.414062 57.925781 65.367188 Z M 57.257812 60.796875 C 57.132812 60.589844 57.316406 60.148438 57.40625 59.492188 C 57.992188 59.847656 58.527344 60.050781 58.53125 60.191406 C 58.476562 60.605469 58.363281 61.003906 58.1875 61.386719 C 57.875 61.207031 57.453125 61.09375 57.269531 60.804688 Z M 61.472656 66.792969 C 61.335938 66.757812 61.257812 66.171875 61.050781 65.503906 C 61.6875 65.550781 62.144531 65.453125 62.308594 65.628906 C 62.503906 65.957031 62.625 66.3125 62.667969 66.691406 C 62.277344 66.792969 61.882812 66.828125 61.480469 66.796875 Z M 70.058594 56.496094 C 70.25 56 70.609375 55.714844 71.132812 55.636719 C 71.472656 55.636719 71.949219 56.160156 72.230469 56.566406 L 70.390625 58.097656 C 70.121094 57.597656 70.015625 57.066406 70.070312 56.5 Z M 70.628906 64.429688 L 70.660156 64.429688 C 70.949219 64.074219 71.261719 63.734375 71.589844 63.414062 C 71.808594 63.269531 72.046875 63.160156 72.300781 63.089844 L 71.8125 64.335938 C 71.441406 64.433594 71.0625 64.464844 70.675781 64.429688 L 70.644531 64.46875 C 69.75 65.589844 69.253906 65.648438 68.210938 64.664062 C 69.054688 64.53125 69.636719 63.589844 70.636719 64.433594 Z M 63.582031 56.753906 C 65.332031 57.03125 65.617188 58.667969 66.734375 59.4375 L 63.566406 57.925781 L 64.257812 57.753906 Z M 64.832031 62.4375 L 66.511719 62.027344 C 66.644531 62.371094 66.785156 62.753906 67.035156 63.425781 L 64.839844 62.695312 C 64.84375 62.613281 64.839844 62.53125 64.839844 62.445312 Z M 65.378906 66.808594 C 65.410156 66.515625 65.46875 66.226562 65.554688 65.945312 L 65.867188 65.816406 C 66.121094 66.28125 66.316406 66.765625 66.457031 67.273438 C 66.484375 67.394531 65.867188 67.554688 65.539062 67.703125 C 65.457031 67.410156 65.410156 67.117188 65.390625 66.816406 Z M 65.699219 72.453125 L 63.710938 69.417969 L 64.402344 69.671875 C 64.402344 69.316406 64.363281 68.996094 64.335938 68.472656 C 65.714844 69.691406 65.136719 71.203125 65.710938 72.488281 Z M 60.621094 63.773438 C 60.582031 63.433594 60.554688 63.195312 60.535156 63.023438 L 62.964844 65.683594 C 61.898438 64.832031 60.355469 65.105469 59.511719 63.453125 Z M 60.621094 63.773438 " fill-opacity="1" fill-rule="nonzero"/><path fill="#16973c" d="M 9.875 68.066406 C 9.96875 68.320312 10.105469 68.542969 10.289062 68.742188 C 10.46875 68.941406 10.683594 69.101562 10.925781 69.214844 C 11.171875 69.328125 11.429688 69.390625 11.699219 69.40625 C 11.96875 69.417969 12.230469 69.378906 12.484375 69.289062 C 12.292969 68.832031 12.144531 68.363281 12.046875 67.875 L 12.367188 67.773438 C 12.617188 67.933594 12.847656 68.117188 13.058594 68.324219 C 13.203125 68.515625 13.324219 68.726562 13.421875 68.949219 L 22.609375 65.609375 C 22.019531 65.351562 21.480469 65.015625 20.988281 64.597656 C 20.785156 64.433594 20.824219 63.890625 20.789062 63.714844 C 21.242188 62.316406 21.914062 62.058594 22.679688 62.914062 C 23.125 63.449219 23.460938 64.050781 23.675781 64.710938 C 23.738281 64.867188 23.753906 65.03125 23.726562 65.195312 L 27.347656 63.878906 C 26.996094 63.058594 26.996094 62.234375 27.347656 61.410156 C 27.546875 62.164062 27.714844 62.925781 27.945312 63.671875 L 48.59375 56.160156 L 47.574219 55.613281 C 47.8125 55.507812 48.066406 55.4375 48.324219 55.40625 C 48.785156 55.441406 49.238281 55.503906 49.691406 55.589844 L 49.722656 55.589844 C 49.945312 54.300781 51 54.648438 51.707031 54.179688 C 51.679688 54.503906 51.605469 54.8125 51.488281 55.113281 L 54.40625 54.058594 C 54.371094 53.90625 54.332031 53.75 54.289062 53.574219 L 54.609375 53.472656 C 54.753906 53.585938 54.910156 53.6875 55.058594 53.796875 L 63.027344 50.886719 L 61.082031 51.417969 C 61.035156 51.351562 60.992188 51.277344 60.941406 51.207031 C 61.28125 50.828125 61.628906 50.453125 62.117188 49.90625 L 63.246094 50.808594 L 65.851562 49.835938 C 66.003906 49.726562 66.175781 49.664062 66.367188 49.648438 L 66.773438 49.5 C 66.828125 49.066406 66.902344 48.632812 67.003906 48.207031 C 67.109375 47.957031 67.25 47.730469 67.425781 47.527344 L 67.648438 48.886719 C 67.488281 49.085938 67.296875 49.25 67.070312 49.371094 L 69.316406 48.621094 C 69.28125 48.109375 69.359375 47.613281 69.550781 47.132812 C 69.660156 47.558594 69.769531 47.992188 69.875 48.417969 L 77.9375 45.507812 C 77.746094 45.046875 77.597656 44.574219 77.5 44.089844 L 77.820312 43.988281 C 78.070312 44.148438 78.300781 44.328125 78.511719 44.535156 C 78.65625 44.730469 78.777344 44.941406 78.871094 45.167969 L 88.058594 41.828125 C 87.472656 41.570312 86.933594 41.230469 86.441406 40.816406 C 86.238281 40.652344 86.277344 40.109375 86.238281 39.933594 C 86.335938 39.578125 86.5 39.253906 86.722656 38.960938 L 81.359375 40.933594 L 80.945312 39.8125 C 80.691406 40.195312 80.507812 40.609375 80.402344 41.054688 L 80.503906 38.628906 L 77.414062 30.253906 C 77.320312 30.109375 77.222656 29.964844 77.125 29.816406 L 77.382812 29.910156 L 77.796875 29.757812 C 77.796875 29.503906 77.765625 29.242188 77.746094 28.875 L 77.320312 29.140625 C 77.382812 28.351562 77.425781 27.757812 77.472656 27.199219 L 74.753906 28.171875 C 74.769531 28.199219 74.789062 28.226562 74.808594 28.253906 C 74.566406 28.433594 74.320312 28.636719 74.082031 28.804688 C 74.152344 29.375 74.273438 29.777344 74.148438 29.945312 C 73.949219 30.210938 73.519531 30.261719 73.175781 30.402344 C 73.015625 30.003906 72.921875 29.59375 72.894531 29.164062 C 72.894531 29.078125 73.097656 28.996094 73.378906 28.890625 C 73.335938 28.828125 73.296875 28.765625 73.261719 28.699219 L 64.457031 31.921875 C 64.996094 32.671875 65.246094 33.511719 65.203125 34.433594 L 66.566406 33.949219 L 67.164062 35.582031 L 62.789062 37.222656 L 63.820312 40.054688 L 67.621094 38.671875 C 67.636719 38.648438 67.65625 38.628906 67.679688 38.613281 C 68.128906 38.335938 68.589844 38.324219 69.054688 38.582031 C 69.464844 38.988281 69.722656 39.472656 69.824219 40.039062 L 68.527344 40.039062 L 68.566406 40.148438 L 64.457031 41.65625 L 64.6875 42.296875 C 64.753906 42.226562 64.828125 42.160156 64.90625 42.101562 C 65.703125 42.785156 66.117188 43.648438 66.15625 44.695312 L 70.289062 43.152344 L 70.890625 44.816406 L 65.589844 46.757812 L 65.101562 47.933594 C 65.042969 47.613281 64.992188 47.308594 64.9375 47.007812 L 64.265625 47.253906 L 63.484375 45.207031 C 63.429688 45.460938 63.371094 45.726562 63.3125 45.992188 L 61.152344 45.398438 C 61.320312 44.488281 61.429688 43.632812 61.636719 42.835938 C 61.820312 42.554688 62.078125 42.445312 62.410156 42.507812 C 62.425781 42.519531 62.445312 42.527344 62.464844 42.535156 L 62.105469 41.5625 L 61.46875 40.640625 C 61.507812 40.578125 61.550781 40.515625 61.59375 40.453125 C 61.410156 40.648438 61.203125 40.839844 60.980469 41.074219 C 60.9375 40.574219 60.949219 40.074219 61.019531 39.578125 C 61.0625 39.4375 61.128906 39.308594 61.21875 39.195312 L 60.140625 36.28125 L 62.949219 35.238281 L 62.84375 35.039062 C 63.144531 34.863281 63.433594 34.554688 63.746094 34.554688 C 64.597656 34.582031 64.855469 34.257812 64.480469 33.339844 C 64.304688 32.917969 64.109375 32.503906 63.910156 32.097656 L 55.875 35.011719 C 55.898438 35.082031 55.921875 35.15625 55.9375 35.234375 C 55.9375 35.355469 55.339844 35.515625 55.019531 35.660156 C 55.019531 35.558594 54.96875 35.453125 54.945312 35.351562 L 45.90625 38.636719 C 45.824219 38.804688 45.734375 38.964844 45.632812 39.121094 C 45.570312 39.207031 45.492188 39.277344 45.398438 39.324219 C 45.304688 39.375 45.203125 39.398438 45.097656 39.398438 C 44.992188 39.398438 44.890625 39.375 44.796875 39.324219 C 44.699219 39.277344 44.621094 39.207031 44.558594 39.121094 L 41.023438 40.449219 C 41.253906 41.210938 41.335938 41.988281 41.265625 42.78125 C 41.265625 42.867188 41.265625 42.9375 41.265625 43.011719 C 41.613281 43.867188 41.75 44.886719 41.453125 45.261719 C 41.378906 45.339844 41.285156 45.378906 41.175781 45.378906 L 45.144531 54.410156 L 43.199219 55.117188 L 41.304688 50.75 C 40.695312 49.367188 39.996094 47.714844 39.445312 46.210938 L 39.402344 46.210938 C 39.535156 47.667969 39.636719 49.335938 39.652344 50.886719 L 39.796875 56.226562 L 38.210938 56.8125 L 34.996094 52.671875 C 34.050781 51.457031 33.105469 50.097656 32.292969 48.835938 L 32.25 48.835938 C 32.734375 50.292969 33.324219 52.054688 33.785156 53.59375 L 35.175781 58.097656 L 35.054688 58.144531 C 35.09375 58.265625 35.125 58.390625 35.160156 58.511719 L 33.890625 59.246094 L 33.648438 58.652344 L 33.3125 58.773438 L 31.574219 52.949219 C 31.148438 53.265625 30.796875 53.285156 30.53125 52.550781 C 30.429688 52.308594 30.289062 52.09375 30.101562 51.910156 C 29.617188 51.375 29.445312 50.71875 29.859375 50.253906 C 30.101562 50.058594 30.378906 49.964844 30.691406 49.96875 L 29.960938 47.539062 L 32.617188 46.570312 L 35.695312 50.453125 C 36.570312 51.539062 37.382812 52.671875 38.125 53.851562 L 38.167969 53.851562 C 38 52.554688 37.898438 51.039062 37.828125 49.613281 L 37.828125 48.6875 C 37.777344 48.832031 37.730469 48.984375 37.699219 49.136719 L 37.386719 49.167969 C 36.902344 48.527344 36.414062 47.886719 35.871094 47.152344 C 36.886719 46.890625 37.429688 47.417969 37.8125 48.039062 L 37.742188 44.640625 L 40.070312 43.75 C 40.179688 43.394531 40.28125 43.050781 40.417969 42.597656 L 39.136719 43.082031 C 39.0625 42.957031 38.996094 42.828125 38.925781 42.699219 C 39.222656 42.527344 39.515625 42.214844 39.828125 42.214844 C 40.675781 42.242188 40.9375 41.917969 40.558594 41 L 40.414062 40.671875 L 23.933594 46.652344 C 24.0625 47.351562 23.738281 47.71875 22.828125 48.109375 C 22.902344 47.757812 22.921875 47.402344 22.890625 47.046875 L 19.914062 48.117188 L 19.769531 48.476562 C 19.40625 48.574219 19.035156 48.609375 18.65625 48.574219 L 18.617188 48.574219 C 17.914062 49.457031 17.453125 49.667969 16.78125 49.238281 L 13.996094 50.253906 C 14.199219 50.617188 14.351562 50.996094 14.453125 51.398438 C 14.453125 51.527344 13.855469 51.6875 13.535156 51.832031 C 13.453125 51.546875 13.398438 51.253906 13.367188 50.957031 C 13.378906 50.792969 13.410156 50.632812 13.457031 50.472656 L 12.484375 50.832031 L 13.097656 52.171875 L 12.339844 52.65625 C 12.683594 52.957031 12.9375 53.320312 13.101562 53.75 C 13.449219 53.5625 13.808594 53.398438 14.179688 53.265625 C 15.085938 52.882812 16.03125 52.722656 17.015625 52.777344 L 17.199219 54.515625 C 16.398438 54.496094 15.628906 54.625 14.878906 54.910156 C 14.347656 55.085938 13.863281 55.351562 13.425781 55.699219 C 13.464844 56.023438 13.550781 56.335938 13.679688 56.632812 C 13.519531 56.390625 13.363281 56.148438 13.195312 55.910156 C 12.878906 56.21875 12.632812 56.578125 12.457031 56.980469 C 12.5 57.105469 12.546875 57.226562 12.597656 57.359375 C 12.722656 57.441406 12.84375 57.53125 12.960938 57.628906 C 13.15625 57.832031 13.316406 58.058594 13.445312 58.308594 L 12.445312 58.050781 L 12.171875 58.195312 C 12.132812 58.910156 12.25 59.597656 12.519531 60.257812 C 13.039062 61.683594 13.929688 62.609375 15.058594 62.957031 L 15.132812 61.25 L 15.546875 61.878906 C 15.742188 61.597656 15.910156 61.34375 16.191406 60.910156 C 16.375 61.6875 16.253906 62.414062 15.824219 63.089844 C 16.507812 63.132812 17.167969 63.035156 17.804688 62.789062 C 18.554688 62.515625 19.230469 62.117188 19.832031 61.597656 L 20.769531 63.054688 C 20.011719 63.78125 19.128906 64.300781 18.125 64.613281 C 17.390625 64.90625 16.628906 65.066406 15.839844 65.097656 C 16.007812 65.453125 16.132812 65.710938 16.082031 65.785156 C 15.796875 66.070312 15.472656 66.300781 15.109375 66.476562 C 14.957031 66.128906 14.679688 65.769531 14.699219 65.429688 C 14.699219 65.3125 14.808594 65.203125 14.964844 65.066406 C 13.878906 64.941406 12.933594 64.507812 12.132812 63.765625 L 11.503906 63.550781 C 11.382812 63.308594 11.3125 63.054688 11.292969 62.789062 C 11.136719 62.558594 10.992188 62.320312 10.867188 62.070312 C 10.210938 61.550781 10.019531 61.125 10.246094 60.519531 C 10.003906 59.746094 9.933594 58.957031 10.027344 58.152344 C 10.125 57.347656 10.378906 56.597656 10.792969 55.898438 C 10.546875 55.476562 10.648438 55.007812 11.054688 54.285156 C 11.15625 54.546875 11.292969 54.789062 11.46875 55.011719 C 11.695312 54.761719 11.945312 54.535156 12.210938 54.332031 L 11.726562 53.585938 L 12.410156 53.832031 C 12.410156 53.480469 12.371094 53.160156 12.34375 52.636719 L 11.921875 52.90625 C 11.980469 52.113281 12.023438 51.527344 12.066406 50.960938 L 9.351562 51.933594 L 9.402344 52.019531 C 9.160156 52.199219 8.917969 52.398438 8.683594 52.570312 C 8.746094 53.136719 8.867188 53.539062 8.742188 53.714844 C 8.542969 53.976562 8.121094 54.027344 7.769531 54.167969 C 7.613281 53.769531 7.519531 53.355469 7.488281 52.929688 C 7.488281 52.839844 7.691406 52.765625 7.976562 52.65625 C 7.941406 52.597656 7.898438 52.535156 7.859375 52.46875 L 6.589844 52.953125 C 6.335938 53.046875 6.109375 53.183594 5.910156 53.367188 C 5.707031 53.550781 5.550781 53.765625 5.4375 54.011719 C 5.320312 54.257812 5.257812 54.515625 5.246094 54.785156 C 5.234375 55.058594 5.273438 55.320312 5.363281 55.574219 L 5.582031 56.175781 L 6.339844 56.066406 C 6.195312 56.316406 6.007812 56.53125 5.78125 56.714844 Z M 76.90625 39.769531 C 76.757812 39.386719 76.667969 38.992188 76.636719 38.582031 L 76.605469 38.554688 C 75.402344 37.714844 75.269531 37.199219 76.03125 36.039062 C 76.261719 36.914062 77.242188 37.449219 76.605469 38.554688 C 76.609375 38.566406 76.609375 38.578125 76.605469 38.589844 C 77 38.863281 77.382812 39.160156 77.746094 39.476562 C 77.921875 39.699219 78.0625 39.9375 78.171875 40.195312 Z M 80.988281 40.738281 C 81.261719 41.382812 81.582031 41.890625 81.476562 41.996094 C 81.191406 42.285156 80.867188 42.515625 80.503906 42.691406 C 80.351562 42.339844 80.074219 41.988281 80.09375 41.648438 C 80.125 41.417969 80.539062 41.179688 80.980469 40.738281 Z M 67.71875 33.503906 L 69.542969 32.820312 L 70.773438 31.710938 C 70.75 31.871094 70.710938 32.09375 70.65625 32.398438 L 75.972656 30.398438 L 76.21875 31.011719 C 76.289062 30.832031 76.371094 30.660156 76.464844 30.492188 C 76.691406 31.179688 77.394531 31.617188 77.367188 32.359375 L 77.574219 32.332031 L 78.058594 33.554688 C 78.179688 33.640625 78.304688 33.722656 78.421875 33.820312 C 78.617188 34.027344 78.777344 34.253906 78.910156 34.503906 L 77.90625 34.25 L 77.027344 34.734375 C 77.128906 34.054688 77.207031 33.519531 77.277344 33.039062 L 77.234375 33.011719 C 76.851562 32.808594 76.527344 32.535156 76.261719 32.195312 L 73.523438 33.234375 C 73.804688 33.246094 74.082031 33.28125 74.355469 33.34375 L 74.527344 33.660156 C 74.277344 33.816406 74.039062 33.996094 73.78125 34.144531 L 76.945312 42.582031 L 74.90625 43.328125 L 71.460938 34 L 69.316406 34.808594 C 70.09375 36.019531 70.878906 37.257812 71.671875 38.492188 L 71.570312 38.78125 C 71.3125 38.660156 70.976562 38.617188 70.816406 38.410156 C 69.003906 36.015625 68.933594 35.898438 69.207031 34.84375 L 68.308594 35.191406 Z M 71.542969 45.894531 C 72.003906 45.929688 72.457031 45.988281 72.914062 46.074219 L 72.941406 46.074219 C 73.164062 44.789062 74.214844 45.132812 74.925781 44.667969 C 74.765625 46.089844 74.347656 46.359375 72.941406 46.074219 L 72.894531 46.074219 C 72.625 46.355469 72.320312 46.585938 71.972656 46.757812 L 70.773438 46.097656 C 71.019531 45.992188 71.273438 45.921875 71.542969 45.894531 Z M 51.820312 52.507812 C 51.582031 51.835938 51.445312 51.449219 51.335938 51.101562 L 52.890625 50.335938 L 53.046875 50.539062 Z M 58.25 51.535156 C 57.964844 51.824219 57.640625 52.054688 57.277344 52.230469 C 57.128906 51.878906 56.851562 51.519531 56.871094 51.1875 C 56.871094 50.941406 57.296875 50.699219 57.75 50.277344 C 58.027344 50.90625 58.347656 51.40625 58.265625 51.515625 Z M 59.5 44.167969 C 59.695312 43.960938 59.910156 43.773438 60.144531 43.613281 L 60.472656 43.71875 C 60.410156 44.21875 60.296875 44.703125 60.121094 45.175781 C 60.066406 45.289062 59.464844 45.011719 59.121094 44.914062 C 59.222656 44.644531 59.351562 44.386719 59.511719 44.148438 Z M 56.734375 40.378906 C 57.21875 40.820312 57.652344 41.042969 57.707031 41.289062 C 57.75 41.628906 57.5 41.980469 57.375 42.332031 C 56.996094 42.15625 56.652344 41.921875 56.34375 41.636719 C 56.246094 41.507812 56.523438 41.007812 56.75 40.359375 Z M 55.277344 47.878906 L 52.09375 39.34375 L 53.949219 38.628906 L 53.175781 37.441406 L 53.863281 37.695312 C 53.863281 37.339844 53.824219 37.019531 53.792969 36.496094 C 55.167969 37.703125 54.585938 39.214844 55.164062 40.476562 C 54.902344 40.078125 54.640625 39.679688 54.382812 39.28125 L 56.59375 45.261719 C 56.59375 45.207031 56.59375 45.152344 56.59375 45.09375 L 57.003906 45.726562 C 57.199219 45.441406 57.371094 45.1875 57.652344 44.753906 C 57.835938 45.566406 57.699219 46.316406 57.238281 47.011719 L 57.554688 47.871094 L 62.105469 46.167969 L 62.714844 47.851562 L 56.472656 50.15625 C 56.464844 50.253906 56.4375 50.347656 56.390625 50.433594 C 56.34375 50.519531 56.28125 50.589844 56.199219 50.648438 C 56.121094 50.707031 56.035156 50.742188 55.9375 50.761719 C 55.839844 50.78125 55.746094 50.777344 55.648438 50.753906 C 54.929688 50.503906 54.28125 50.128906 53.707031 49.628906 C 53.5 49.460938 53.539062 48.917969 53.507812 48.746094 C 53.953125 47.429688 54.589844 47.148438 55.304688 47.859375 Z M 43.476562 47.65625 C 43.433594 47.171875 43.476562 46.453125 43.722656 46.238281 C 43.886719 46.125 44.070312 46.058594 44.273438 46.050781 L 43.074219 42.828125 C 44.023438 42.265625 45.019531 41.796875 46.0625 41.417969 C 47.519531 40.890625 48.699219 40.8125 49.617188 41.128906 C 50.417969 41.441406 51.015625 41.980469 51.414062 42.742188 C 51.554688 42.675781 51.707031 42.644531 51.867188 42.652344 C 51.898438 43.136719 51.898438 43.621094 51.867188 44.109375 C 51.980469 44.761719 51.894531 45.386719 51.605469 45.988281 C 51.566406 46.070312 51.523438 46.152344 51.480469 46.230469 L 51.832031 46.449219 C 51.621094 47 51.40625 47.550781 51.199219 48.101562 L 50.746094 47.820312 L 51.335938 46.472656 C 51 46.976562 50.582031 47.394531 50.074219 47.730469 L 50.074219 48 L 49.941406 47.816406 C 49.511719 48.089844 49.0625 48.3125 48.582031 48.480469 C 48.253906 48.597656 47.917969 48.6875 47.574219 48.75 L 49.132812 52.894531 L 47.140625 53.617188 L 45.15625 48.3125 C 44.789062 48.445312 44.410156 48.550781 44.023438 48.628906 C 43.859375 48.328125 43.558594 47.980469 43.503906 47.636719 Z M 44.414062 52.6875 C 44.289062 51.933594 44.328125 51.136719 45.316406 50.667969 C 45.367188 51.578125 45.410156 52.378906 45.453125 53.179688 L 45.195312 53.359375 C 44.953125 53.117188 44.488281 52.945312 44.441406 52.667969 Z M 35.910156 58.789062 L 36.808594 59.8125 L 36.445312 60.269531 L 35.402344 59.40625 Z M 31.632812 61.429688 C 30.363281 61.390625 29.585938 60.546875 29.980469 59.359375 L 31.828125 61.144531 Z M 19.925781 48.472656 L 21.328125 48.636719 L 19.835938 50.371094 L 19.609375 50.261719 C 19.703125 49.746094 19.792969 49.226562 19.925781 48.472656 Z M 16.164062 57.4375 C 16.132812 57.8125 16.019531 58.160156 15.832031 58.484375 C 15.453125 58.308594 15.109375 58.078125 14.804688 57.792969 C 14.710938 57.679688 14.988281 57.175781 15.210938 56.53125 C 15.695312 56.976562 16.128906 57.195312 16.164062 57.4375 Z M 18.59375 61.351562 C 18.535156 61.464844 17.9375 61.191406 17.59375 61.09375 C 17.691406 60.820312 17.816406 60.5625 17.972656 60.316406 C 18.167969 60.109375 18.382812 59.929688 18.617188 59.769531 L 18.945312 59.871094 C 18.886719 60.378906 18.773438 60.871094 18.597656 61.351562 Z M 17.347656 57.050781 C 17.054688 57.109375 16.8125 57.023438 16.621094 56.792969 C 16.429688 56.5625 16.394531 56.308594 16.507812 56.03125 C 16.671875 55.375 16.960938 54.777344 17.367188 54.238281 C 17.984375 53.488281 18.597656 53.597656 19.113281 54.59375 C 19.160156 54.085938 19.277344 53.59375 19.464844 53.117188 C 19.652344 52.640625 19.902344 52.199219 20.21875 51.796875 C 20.53125 51.394531 20.898438 51.042969 21.3125 50.742188 C 21.730469 50.445312 22.179688 50.210938 22.660156 50.039062 C 23.351562 49.765625 24.070312 49.644531 24.816406 49.675781 C 25.558594 49.710938 26.261719 49.894531 26.929688 50.230469 C 27.238281 49.859375 27.441406 49.488281 26.371094 49.113281 C 26.542969 48.769531 26.691406 48.480469 26.855469 48.195312 C 27.859375 48.851562 28.113281 48.621094 28.242188 47.015625 C 28.414062 47.988281 29.867188 48.320312 29.363281 49.730469 L 28.828125 48.800781 L 28.570312 48.800781 C 28.605469 49.253906 28.640625 49.710938 28.664062 50.160156 C 28.691406 50.726562 28.664062 51.132812 27.992188 50.9375 C 28.847656 51.703125 29.480469 52.621094 29.886719 53.691406 C 31.242188 57.410156 29.785156 60.292969 26.789062 61.457031 C 25.75 61.855469 24.695312 61.925781 23.613281 61.671875 C 23.613281 61.738281 23.664062 61.8125 23.683594 61.890625 C 22.371094 62.164062 21.90625 61.890625 21.632812 60.667969 C 20.699219 59.875 20.027344 58.902344 19.613281 57.753906 C 19.398438 57.1875 19.25 56.601562 19.175781 55.996094 C 18.644531 56.476562 18.035156 56.828125 17.355469 57.050781 Z M 8.046875 57.050781 C 8.332031 57.058594 8.617188 57.097656 8.894531 57.167969 C 8.945312 57.273438 9.003906 57.375 9.0625 57.484375 C 8.671875 57.78125 8.25 58.027344 7.792969 58.214844 C 7.683594 58.246094 7.429688 57.613281 7.242188 57.289062 C 7.503906 57.175781 7.773438 57.097656 8.050781 57.046875 Z M 9.101562 65.390625 L 10.664062 64.625 L 10.8125 64.828125 C 10.464844 65.394531 10.117188 65.964844 9.601562 66.769531 C 9.371094 66.117188 9.234375 65.730469 9.105469 65.386719 Z M 9.101562 65.390625 " fill-opacity="1" fill-rule="nonzero"/><path fill="#16973c" d="M 61.714844 40.492188 L 61.675781 40.382812 L 61.621094 40.441406 Z M 61.714844 40.492188 " fill-opacity="1" fill-rule="nonzero"/><path fill="#16973c" d="M 77.199219 32.972656 C 77.203125 32.984375 77.203125 32.996094 77.199219 33.003906 L 77.226562 32.800781 C 77.242188 32.871094 77.222656 32.917969 77.199219 32.972656 Z M 77.199219 32.972656 " fill-opacity="1" fill-rule="nonzero"/><path fill="#16973c" d="M 49.675781 55.59375 C 49.550781 55.691406 49.429688 55.796875 49.308594 55.90625 L 50.042969 55.636719 C 49.941406 55.636719 49.84375 55.609375 49.730469 55.585938 Z M 49.675781 55.59375 " fill-opacity="1" fill-rule="nonzero"/><path fill="#16973c" d="M 78.320312 29.539062 L 83.667969 27.558594 L 84.265625 29.195312 L 79.890625 30.835938 L 80.644531 32.804688 C 80.65625 32.78125 80.664062 32.757812 80.667969 32.734375 C 81.03125 33.058594 81.359375 33.269531 81.519531 33.453125 L 82.292969 33.164062 C 82.136719 33.066406 82.027344 32.929688 81.96875 32.753906 C 81.910156 32.578125 81.914062 32.402344 81.976562 32.230469 C 82.140625 31.570312 82.425781 30.972656 82.835938 30.433594 C 83.53125 29.578125 84.226562 29.835938 84.78125 31.238281 C 84.78125 31.414062 84.839844 31.957031 84.648438 32.121094 C 84.460938 32.289062 84.382812 32.34375 84.242188 32.453125 L 85.082031 32.144531 L 85.417969 32.992188 C 85.457031 32.933594 85.496094 32.871094 85.539062 32.8125 L 87.152344 33.578125 C 87.054688 33.929688 86.949219 34.3125 86.761719 34.984375 C 86.21875 34.195312 85.835938 33.644531 85.460938 33.109375 L 85.707031 33.722656 L 81.558594 35.289062 L 82.78125 38.507812 L 87.070312 36.898438 C 87.070312 36.816406 87.03125 36.75 87.015625 36.65625 C 87.113281 36.71875 87.214844 36.769531 87.320312 36.808594 L 87.375 36.808594 L 87.375 36.851562 C 88.054688 37.074219 88.832031 37.003906 89.089844 38.089844 C 88.691406 38.199219 88.292969 38.214844 87.886719 38.136719 L 88.015625 38.472656 L 87.457031 38.675781 C 87.722656 38.761719 87.941406 38.914062 88.117188 39.132812 C 88.566406 39.667969 88.898438 40.265625 89.121094 40.929688 C 89.175781 41.085938 89.191406 41.246094 89.167969 41.414062 L 89.855469 41.160156 C 90.109375 41.070312 90.335938 40.929688 90.535156 40.75 C 90.734375 40.566406 90.894531 40.351562 91.007812 40.105469 C 91.121094 39.859375 91.1875 39.601562 91.199219 39.332031 C 91.210938 39.0625 91.171875 38.800781 91.078125 38.542969 L 86.535156 26.074219 C 86.457031 25.867188 86.34375 25.675781 86.203125 25.503906 C 85.859375 25.910156 85.566406 26.246094 85.277344 26.578125 L 85.050781 26.472656 C 85.132812 25.984375 85.222656 25.5 85.335938 24.871094 C 85.203125 24.820312 85.070312 24.785156 84.929688 24.761719 C 84.679688 24.777344 84.433594 24.777344 84.183594 24.761719 L 84.042969 24.800781 L 84.007812 24.800781 C 83.3125 25.671875 82.851562 25.878906 82.183594 25.457031 L 79.394531 26.464844 C 79.601562 26.828125 79.753906 27.210938 79.851562 27.617188 C 79.875 27.738281 79.257812 27.902344 78.933594 28.042969 C 78.851562 27.757812 78.796875 27.46875 78.773438 27.171875 C 78.78125 27.003906 78.808594 26.84375 78.855469 26.683594 L 77.882812 27.039062 C 78.0625 27.421875 78.253906 27.839844 78.5 28.378906 L 77.738281 28.863281 C 77.96875 29.058594 78.164062 29.28125 78.320312 29.539062 Z M 84.054688 37.535156 C 84.003906 37.648438 83.40625 37.371094 83.054688 37.273438 C 83.15625 37.003906 83.28125 36.746094 83.433594 36.5 C 83.628906 36.292969 83.847656 36.109375 84.082031 35.949219 L 84.410156 36.054688 C 84.355469 36.5625 84.234375 37.054688 84.054688 37.535156 Z M 86.8125 30.34375 C 87.113281 30.242188 87.511719 30.4375 87.867188 30.503906 C 87.796875 30.917969 87.667969 31.3125 87.476562 31.683594 C 87.394531 31.796875 86.859375 31.59375 86.199219 31.476562 C 86.503906 30.898438 86.601562 30.421875 86.8125 30.34375 Z M 86.8125 30.34375 " fill-opacity="1" fill-rule="nonzero"/><path fill="#16973c" d="M 40.832031 43.75 C 40.738281 43.824219 40.632812 43.882812 40.519531 43.929688 L 40.835938 44.648438 C 40.832031 44.332031 40.832031 44.039062 40.832031 43.75 Z M 40.832031 43.75 " fill-opacity="1" fill-rule="nonzero"/><path fill="#16973c" d="M 26.21875 59.824219 C 26.859375 59.578125 27.34375 59.160156 27.675781 58.558594 C 27.675781 58.046875 27.652344 57.511719 27.636719 56.933594 C 27.796875 57.007812 27.945312 57.101562 28.085938 57.210938 C 28.148438 56.316406 28.015625 55.457031 27.675781 54.628906 C 27.632812 54.511719 27.585938 54.394531 27.535156 54.285156 L 25.167969 54.605469 L 25.65625 54.070312 L 24.605469 53.554688 C 25.664062 53.070312 26.492188 53.46875 27.316406 53.800781 C 26.660156 52.574219 25.628906 51.667969 24.433594 51.535156 C 24.433594 51.714844 24.40625 51.898438 24.402344 52.019531 C 24.121094 51.964844 23.847656 51.878906 23.585938 51.765625 C 23.511719 51.71875 23.4375 51.667969 23.371094 51.613281 L 23.15625 51.675781 C 22.621094 51.867188 22.179688 52.1875 21.832031 52.640625 C 21.488281 53.097656 21.300781 53.609375 21.261719 54.175781 C 21.285156 54.148438 21.316406 54.125 21.355469 54.113281 C 21.660156 54.007812 22.054688 54.207031 22.410156 54.273438 C 22.34375 54.6875 22.214844 55.078125 22.019531 55.449219 C 21.960938 55.53125 21.667969 55.449219 21.265625 55.355469 C 21.335938 55.882812 21.457031 56.394531 21.640625 56.890625 C 22.515625 59.167969 24.265625 60.53125 26.21875 59.824219 Z M 26.21875 59.824219 " fill-opacity="1" fill-rule="nonzero"/></svg>