<svg xmlns="http://www.w3.org/2000/svg" xmlns:xlink="http://www.w3.org/1999/xlink" width="15" zoomAndPan="magnify" viewBox="0 0 11.25 11.25" height="15" preserveAspectRatio="xMidYMid meet" version="1.0"><defs><clipPath id="89bad0b2d8"><path d="M 1 0.269531 L 9 0.269531 L 9 10 L 1 10 Z M 1 0.269531 " clip-rule="nonzero"/></clipPath><clipPath id="b0f98b6dc3"><path d="M 0.191406 0.269531 L 8 0.269531 L 8 9 L 0.191406 9 Z M 0.191406 0.269531 " clip-rule="nonzero"/></clipPath><clipPath id="7c70cff825"><path d="M 3 1 L 10.035156 1 L 10.035156 10.113281 L 3 10.113281 Z M 3 1 " clip-rule="nonzero"/></clipPath></defs><g clip-path="url(#89bad0b2d8)"><path fill="#a6a6a6" d="M 5.667969 4.910156 L 8.71875 0.472656 L 2.308594 5.550781 L 4.609375 5.550781 L 1.558594 9.988281 L 7.96875 4.910156 L 5.667969 4.910156 " fill-opacity="1" fill-rule="nonzero"/></g><g clip-path="url(#b0f98b6dc3)"><path fill="#a6a6a6" d="M 2.449219 7.929688 C 1.699219 7.203125 1.289062 6.230469 1.289062 5.1875 C 1.289062 3.078125 3 1.363281 5.109375 1.363281 C 5.648438 1.363281 6.167969 1.476562 6.660156 1.691406 L 7.101562 0.691406 C 6.472656 0.410156 5.800781 0.269531 5.109375 0.269531 C 2.398438 0.269531 0.191406 2.476562 0.191406 5.1875 C 0.191406 6.527344 0.722656 7.78125 1.6875 8.71875 L 2.449219 7.929688 " fill-opacity="1" fill-rule="nonzero"/></g><g clip-path="url(#7c70cff825)"><path fill="#a6a6a6" d="M 7.828125 2.503906 C 8.539062 3.222656 8.929688 4.175781 8.929688 5.1875 C 8.929688 7.292969 7.214844 9.007812 5.109375 9.007812 C 4.585938 9.007812 4.082031 8.902344 3.609375 8.699219 L 3.179688 9.707031 C 3.789062 9.96875 4.4375 10.101562 5.109375 10.101562 C 7.820312 10.101562 10.023438 7.898438 10.023438 5.1875 C 10.023438 3.886719 9.523438 2.660156 8.609375 1.734375 L 7.828125 2.503906 " fill-opacity="1" fill-rule="nonzero"/></g></svg>