<svg xmlns="http://www.w3.org/2000/svg" xmlns:xlink="http://www.w3.org/1999/xlink" width="19" zoomAndPan="magnify" viewBox="0 0 14.25 14.25" height="19" preserveAspectRatio="xMidYMid meet" version="1.0"><defs><clipPath id="cfe6f1c891"><path d="M 0.0820312 0.429688 L 12.90625 0.429688 L 12.90625 13.253906 L 0.0820312 13.253906 Z M 0.0820312 0.429688 " clip-rule="nonzero"/></clipPath></defs><g clip-path="url(#cfe6f1c891)"><path fill="#a02b2d" d="M 13.015625 6.898438 C 13.015625 10.46875 10.121094 13.367188 6.550781 13.367188 C 2.976562 13.367188 0.0820312 10.46875 0.0820312 6.898438 C 0.0820312 3.324219 2.976562 0.429688 6.550781 0.429688 C 10.121094 0.429688 13.015625 3.324219 13.015625 6.898438 Z M 4.039062 4.703125 C 3.867188 4.703125 3.726562 4.84375 3.726562 5.015625 L 3.726562 9.40625 C 3.726562 9.578125 3.867188 9.71875 4.039062 9.71875 L 8.429688 9.71875 C 8.605469 9.71875 8.746094 9.578125 8.746094 9.40625 L 8.746094 6.113281 L 9.371094 6.113281 L 9.371094 9.40625 C 9.371094 9.925781 8.949219 10.347656 8.429688 10.347656 L 4.039062 10.347656 C 3.519531 10.347656 3.097656 9.925781 3.097656 9.40625 L 3.097656 5.015625 C 3.097656 4.496094 3.519531 4.074219 4.039062 4.074219 L 7.332031 4.074219 L 7.332031 4.703125 Z M 8.835938 3.539062 C 8.957031 3.417969 9.15625 3.417969 9.28125 3.539062 L 9.90625 4.167969 C 10.03125 4.289062 10.03125 4.488281 9.90625 4.609375 L 7.398438 7.117188 C 7.363281 7.152344 7.320312 7.179688 7.277344 7.195312 L 6.335938 7.507812 C 6.222656 7.546875 6.097656 7.515625 6.015625 7.433594 C 5.929688 7.347656 5.902344 7.222656 5.9375 7.113281 L 6.25 6.171875 C 6.265625 6.125 6.292969 6.082031 6.328125 6.046875 Z M 8.835938 3.539062 " fill-opacity="1" fill-rule="evenodd"/></g></svg>