<svg xmlns="http://www.w3.org/2000/svg" xmlns:xlink="http://www.w3.org/1999/xlink" width="31" zoomAndPan="magnify" viewBox="0 0 23.25 17.25" height="23" preserveAspectRatio="xMidYMid meet" version="1.0"><defs><clipPath id="c284c06f15"><path d="M 7 0.457031 L 16 0.457031 L 16 9 L 7 9 Z M 7 0.457031 " clip-rule="nonzero"/></clipPath><clipPath id="636dee34c5"><path d="M 5 8 L 18 8 L 18 16.269531 L 5 16.269531 Z M 5 8 " clip-rule="nonzero"/></clipPath><clipPath id="e962993316"><path d="M 0.496094 10 L 6 10 L 6 16.269531 L 0.496094 16.269531 Z M 0.496094 10 " clip-rule="nonzero"/></clipPath><clipPath id="97ce08dbd4"><path d="M 17 10 L 22.058594 10 L 22.058594 16.269531 L 17 16.269531 Z M 17 10 " clip-rule="nonzero"/></clipPath></defs><g clip-path="url(#c284c06f15)"><path fill="#a6a6a6" d="M 11.375 8.101562 C 13.476562 8.101562 15.183594 6.390625 15.183594 4.289062 C 15.183594 2.1875 13.476562 0.476562 11.375 0.476562 C 9.269531 0.476562 7.5625 2.1875 7.5625 4.289062 C 7.5625 6.390625 9.269531 8.101562 11.375 8.101562 " fill-opacity="1" fill-rule="nonzero"/></g><path fill="#a6a6a6" d="M 17.980469 9.710938 C 19.542969 9.710938 20.816406 8.4375 20.816406 6.875 C 20.816406 5.308594 19.542969 4.035156 17.980469 4.035156 C 16.414062 4.035156 15.140625 5.308594 15.140625 6.875 C 15.140625 8.4375 16.414062 9.710938 17.980469 9.710938 " fill-opacity="1" fill-rule="nonzero"/><path fill="#a6a6a6" d="M 4.765625 9.710938 C 6.332031 9.710938 7.605469 8.4375 7.605469 6.875 C 7.605469 5.308594 6.332031 4.035156 4.765625 4.035156 C 3.203125 4.035156 1.929688 5.308594 1.929688 6.875 C 1.929688 8.4375 3.203125 9.710938 4.765625 9.710938 " fill-opacity="1" fill-rule="nonzero"/><g clip-path="url(#636dee34c5)"><path fill="#a6a6a6" d="M 15.722656 10.5625 C 15.707031 10.546875 15.695312 10.535156 15.679688 10.519531 C 15.542969 10.367188 15.394531 10.222656 15.242188 10.085938 C 15.230469 10.074219 15.214844 10.0625 15.199219 10.050781 C 14.863281 9.753906 14.496094 9.5 14.097656 9.289062 C 14.085938 9.28125 14.070312 9.277344 14.058594 9.269531 C 13.882812 9.179688 13.703125 9.097656 13.519531 9.023438 C 13.464844 9.003906 13.410156 8.984375 13.351562 8.964844 C 13.207031 8.910156 13.058594 8.863281 12.90625 8.820312 C 12.839844 8.804688 12.769531 8.785156 12.699219 8.765625 C 12.550781 8.730469 12.394531 8.707031 12.238281 8.679688 C 12.175781 8.671875 12.109375 8.660156 12.042969 8.652344 C 11.824219 8.625 11.601562 8.609375 11.371094 8.609375 C 11.144531 8.609375 10.921875 8.625 10.703125 8.652344 C 10.636719 8.660156 10.570312 8.671875 10.503906 8.679688 C 10.351562 8.707031 10.195312 8.730469 10.046875 8.765625 C 9.976562 8.785156 9.90625 8.804688 9.839844 8.820312 C 9.6875 8.863281 9.539062 8.910156 9.390625 8.964844 C 9.335938 8.984375 9.277344 9.003906 9.222656 9.023438 C 9.039062 9.097656 8.859375 9.179688 8.6875 9.269531 C 8.671875 9.277344 8.660156 9.28125 8.648438 9.289062 C 8.25 9.5 7.878906 9.753906 7.542969 10.050781 C 7.53125 10.0625 7.515625 10.074219 7.503906 10.085938 C 7.351562 10.222656 7.203125 10.367188 7.0625 10.519531 C 7.050781 10.535156 7.039062 10.546875 7.023438 10.5625 C 6.878906 10.726562 6.742188 10.894531 6.613281 11.074219 C 5.933594 12.03125 5.527344 13.195312 5.527344 14.453125 C 5.527344 15.4375 6.328125 16.234375 7.308594 16.234375 L 15.4375 16.234375 C 16.417969 16.234375 17.21875 15.4375 17.21875 14.453125 C 17.21875 13.195312 16.8125 12.03125 16.132812 11.074219 C 16.003906 10.894531 15.867188 10.726562 15.722656 10.5625 " fill-opacity="1" fill-rule="nonzero"/></g><g clip-path="url(#e962993316)"><path fill="#a6a6a6" d="M 4.765625 10.644531 C 2.382812 10.644531 0.445312 12.582031 0.445312 14.964844 C 0.445312 15.664062 1.015625 16.234375 1.714844 16.234375 L 4.53125 16.234375 C 4.199219 15.71875 4.003906 15.113281 4.003906 14.453125 C 4.003906 13.066406 4.398438 11.769531 5.066406 10.660156 C 4.96875 10.652344 4.867188 10.644531 4.765625 10.644531 " fill-opacity="1" fill-rule="nonzero"/></g><g clip-path="url(#97ce08dbd4)"><path fill="#a6a6a6" d="M 17.980469 10.644531 C 17.878906 10.644531 17.777344 10.652344 17.679688 10.660156 C 18.347656 11.769531 18.742188 13.066406 18.742188 14.453125 C 18.742188 15.113281 18.546875 15.71875 18.214844 16.234375 L 21.03125 16.234375 C 21.730469 16.234375 22.300781 15.664062 22.300781 14.964844 C 22.300781 12.582031 20.363281 10.644531 17.980469 10.644531 " fill-opacity="1" fill-rule="nonzero"/></g></svg>