<svg xmlns="http://www.w3.org/2000/svg" xmlns:xlink="http://www.w3.org/1999/xlink" width="15" zoomAndPan="magnify" viewBox="0 0 11.25 12.75" height="17" preserveAspectRatio="xMidYMid meet" version="1.0"><defs><clipPath id="cdd752d7a0"><path d="M 0.191406 0.839844 L 10.035156 0.839844 L 10.035156 12.089844 L 0.191406 12.089844 Z M 0.191406 0.839844 " clip-rule="nonzero"/></clipPath></defs><g clip-path="url(#cdd752d7a0)"><path fill="#a6a6a6" d="M 9.121094 4.472656 L 9.296875 4.296875 C 9.464844 4.132812 9.464844 3.863281 9.296875 3.695312 L 8.726562 3.125 C 8.5625 2.957031 8.289062 2.957031 8.125 3.125 L 7.949219 3.300781 C 7.359375 2.882812 6.675781 2.59375 5.9375 2.464844 L 5.9375 1.96875 L 6.410156 1.96875 C 6.644531 1.96875 6.835938 1.777344 6.835938 1.542969 L 6.835938 1.265625 C 6.835938 1.03125 6.644531 0.839844 6.410156 0.839844 L 3.808594 0.839844 C 3.574219 0.839844 3.382812 1.03125 3.382812 1.265625 L 3.382812 1.542969 C 3.382812 1.777344 3.574219 1.96875 3.808594 1.96875 L 4.28125 1.96875 L 4.28125 2.464844 C 3.542969 2.59375 2.859375 2.882812 2.269531 3.300781 L 2.09375 3.125 C 1.929688 2.957031 1.65625 2.957031 1.492188 3.125 L 0.921875 3.695312 C 0.839844 3.777344 0.796875 3.882812 0.796875 3.996094 C 0.796875 4.109375 0.839844 4.21875 0.921875 4.296875 L 1.097656 4.472656 C 0.527344 5.277344 0.191406 6.257812 0.191406 7.3125 C 0.191406 10.023438 2.398438 12.230469 5.109375 12.230469 C 7.820312 12.230469 10.027344 10.023438 10.027344 7.3125 C 10.027344 6.257812 9.691406 5.277344 9.121094 4.472656 Z M 8.351562 3.351562 C 8.394531 3.3125 8.457031 3.3125 8.5 3.351562 L 9.070312 3.921875 C 9.089844 3.941406 9.097656 3.96875 9.097656 3.996094 C 9.097656 4.023438 9.089844 4.050781 9.070312 4.070312 L 8.925781 4.214844 C 8.710938 3.953125 8.46875 3.710938 8.207031 3.496094 Z M 3.707031 1.542969 L 3.707031 1.265625 C 3.707031 1.210938 3.75 1.164062 3.808594 1.164062 L 6.410156 1.164062 C 6.46875 1.164062 6.511719 1.210938 6.511719 1.265625 L 6.511719 1.542969 C 6.511719 1.601562 6.46875 1.648438 6.410156 1.648438 L 3.808594 1.648438 C 3.75 1.648438 3.707031 1.601562 3.707031 1.542969 Z M 4.601562 1.96875 L 5.617188 1.96875 L 5.617188 2.421875 C 5.449219 2.40625 5.28125 2.394531 5.109375 2.394531 C 4.9375 2.394531 4.769531 2.40625 4.601562 2.421875 Z M 1.148438 4.070312 C 1.128906 4.050781 1.121094 4.023438 1.121094 3.996094 C 1.121094 3.96875 1.128906 3.941406 1.148438 3.921875 L 1.71875 3.351562 C 1.761719 3.3125 1.824219 3.3125 1.867188 3.351562 L 2.011719 3.496094 C 1.75 3.710938 1.507812 3.953125 1.292969 4.214844 Z M 5.109375 11.90625 C 2.578125 11.90625 0.515625 9.847656 0.515625 7.3125 C 0.515625 4.78125 2.578125 2.71875 5.109375 2.71875 C 7.640625 2.71875 9.703125 4.78125 9.703125 7.3125 C 9.703125 9.847656 7.640625 11.90625 5.109375 11.90625 Z M 5.109375 3.445312 C 2.976562 3.445312 1.242188 5.179688 1.242188 7.3125 C 1.242188 9.445312 2.976562 11.179688 5.109375 11.179688 C 7.242188 11.179688 8.976562 9.445312 8.976562 7.3125 C 8.976562 5.179688 7.242188 3.445312 5.109375 3.445312 Z M 5.109375 10.855469 C 3.15625 10.855469 1.566406 9.265625 1.566406 7.3125 C 1.566406 5.359375 3.15625 3.769531 5.109375 3.769531 C 7.0625 3.769531 8.652344 5.359375 8.652344 7.3125 C 8.652344 9.265625 7.0625 10.855469 5.109375 10.855469 Z M 6.832031 4.652344 L 6.566406 5.109375 C 6.535156 5.164062 6.484375 5.191406 6.425781 5.191406 C 6.398438 5.191406 6.371094 5.183594 6.347656 5.171875 C 6.269531 5.125 6.242188 5.027344 6.289062 4.949219 L 6.554688 4.488281 C 6.597656 4.414062 6.695312 4.386719 6.773438 4.429688 C 6.851562 4.476562 6.875 4.574219 6.832031 4.652344 Z M 7.25 6.074219 C 7.207031 6 7.234375 5.898438 7.3125 5.855469 L 7.769531 5.589844 C 7.847656 5.546875 7.945312 5.570312 7.992188 5.648438 C 8.035156 5.726562 8.007812 5.824219 7.933594 5.871094 L 7.472656 6.136719 C 7.445312 6.148438 7.417969 6.15625 7.390625 6.15625 C 7.335938 6.15625 7.28125 6.128906 7.25 6.074219 Z M 8.4375 7.3125 C 8.4375 7.402344 8.363281 7.472656 8.277344 7.472656 L 7.746094 7.472656 C 7.65625 7.472656 7.582031 7.402344 7.582031 7.3125 C 7.582031 7.222656 7.65625 7.152344 7.746094 7.152344 L 8.277344 7.152344 C 8.363281 7.152344 8.4375 7.222656 8.4375 7.3125 Z M 7.992188 8.976562 C 7.960938 9.027344 7.90625 9.058594 7.851562 9.058594 C 7.824219 9.058594 7.796875 9.050781 7.769531 9.035156 L 7.3125 8.769531 C 7.234375 8.726562 7.207031 8.625 7.25 8.550781 C 7.296875 8.472656 7.394531 8.445312 7.472656 8.492188 L 7.933594 8.757812 C 8.007812 8.800781 8.035156 8.898438 7.992188 8.976562 Z M 6.832031 9.972656 C 6.875 10.050781 6.851562 10.148438 6.773438 10.195312 C 6.746094 10.210938 6.71875 10.214844 6.691406 10.214844 C 6.636719 10.214844 6.582031 10.1875 6.554688 10.136719 L 6.289062 9.675781 C 6.242188 9.597656 6.269531 9.5 6.347656 9.457031 C 6.421875 9.410156 6.523438 9.4375 6.566406 9.515625 Z M 5.269531 9.949219 L 5.269531 10.480469 C 5.269531 10.566406 5.199219 10.640625 5.109375 10.640625 C 5.019531 10.640625 4.949219 10.566406 4.949219 10.480469 L 4.949219 9.949219 C 4.949219 9.859375 5.019531 9.785156 5.109375 9.785156 C 5.199219 9.785156 5.269531 9.859375 5.269531 9.949219 Z M 3.929688 9.675781 L 3.664062 10.136719 C 3.636719 10.1875 3.582031 10.214844 3.527344 10.214844 C 3.5 10.214844 3.472656 10.210938 3.445312 10.195312 C 3.367188 10.148438 3.34375 10.050781 3.386719 9.972656 L 3.652344 9.515625 C 3.695312 9.4375 3.796875 9.410156 3.871094 9.457031 C 3.949219 9.5 3.976562 9.597656 3.929688 9.675781 Z M 2.96875 8.550781 C 3.011719 8.625 2.984375 8.726562 2.90625 8.769531 L 2.449219 9.035156 C 2.421875 9.050781 2.394531 9.058594 2.367188 9.058594 C 2.3125 9.058594 2.257812 9.027344 2.226562 8.976562 C 2.183594 8.898438 2.210938 8.800781 2.285156 8.757812 L 2.746094 8.492188 C 2.824219 8.445312 2.921875 8.472656 2.96875 8.550781 Z M 2.472656 7.472656 L 1.941406 7.472656 C 1.855469 7.472656 1.78125 7.402344 1.78125 7.3125 C 1.78125 7.222656 1.855469 7.152344 1.941406 7.152344 L 2.472656 7.152344 C 2.5625 7.152344 2.636719 7.222656 2.636719 7.3125 C 2.636719 7.402344 2.5625 7.472656 2.472656 7.472656 Z M 2.96875 6.074219 C 2.9375 6.128906 2.882812 6.15625 2.828125 6.15625 C 2.800781 6.15625 2.773438 6.148438 2.746094 6.136719 L 2.285156 5.871094 C 2.210938 5.824219 2.183594 5.726562 2.226562 5.648438 C 2.273438 5.570312 2.371094 5.546875 2.449219 5.589844 L 2.90625 5.855469 C 2.984375 5.898438 3.011719 6 2.96875 6.074219 Z M 3.929688 4.949219 C 3.976562 5.027344 3.949219 5.125 3.871094 5.171875 C 3.847656 5.183594 3.820312 5.191406 3.792969 5.191406 C 3.734375 5.191406 3.683594 5.164062 3.652344 5.109375 L 3.386719 4.652344 C 3.34375 4.574219 3.367188 4.476562 3.445312 4.429688 C 3.523438 4.386719 3.621094 4.414062 3.664062 4.488281 Z M 5.269531 6.832031 L 5.269531 5.402344 C 5.269531 5.3125 5.199219 5.242188 5.109375 5.242188 C 5.019531 5.242188 4.949219 5.3125 4.949219 5.402344 L 4.949219 6.832031 C 4.746094 6.898438 4.601562 7.089844 4.601562 7.3125 C 4.601562 7.59375 4.828125 7.820312 5.109375 7.820312 C 5.390625 7.820312 5.617188 7.59375 5.617188 7.3125 C 5.617188 7.089844 5.472656 6.898438 5.269531 6.832031 Z M 5.109375 7.496094 C 5.007812 7.496094 4.925781 7.414062 4.925781 7.3125 C 4.925781 7.210938 5.007812 7.128906 5.109375 7.128906 C 5.210938 7.128906 5.292969 7.210938 5.292969 7.3125 C 5.292969 7.414062 5.210938 7.496094 5.109375 7.496094 Z M 4.949219 4.675781 L 4.949219 4.144531 C 4.949219 4.058594 5.019531 3.984375 5.109375 3.984375 C 5.199219 3.984375 5.269531 4.058594 5.269531 4.144531 L 5.269531 4.675781 C 5.269531 4.765625 5.199219 4.839844 5.109375 4.839844 C 5.019531 4.839844 4.949219 4.765625 4.949219 4.675781 Z M 4.949219 4.675781 " fill-opacity="1" fill-rule="nonzero"/></g></svg>